<svg id="Layer_2" data-name="Layer 2" xmlns="http://www.w3.org/2000/svg" viewBox="0 0 363.4 284.92"><defs><style>.cls-1{fill:#f7f8f8;}.cls-2{fill:#a5b2b8;}.cls-3{fill:#d0d6d8;}.cls-4,.cls-5{fill:#fff;}.cls-5{stroke:#d0d6d8;stroke-miterlimit:10;stroke-width:2.92px;}</style></defs><rect class="cls-1" x="-1.65" y="-2.31" width="367.86" height="288.77"/><path class="cls-2" d="M144.25,95.77h-29a6.92,6.92,0,0,0-6.92,6.92v80.84a6.92,6.92,0,0,0,6.92,6.92h29Z"/><path class="cls-2" d="M264,95.77H235.42v94.68H264a6.92,6.92,0,0,0,6.92-6.92V102.69A6.92,6.92,0,0,0,264,95.77Z"/><polygon class="cls-3" points="144.25 95.78 144.25 189.36 159.37 182.13 174.72 189.58 190.06 182.13 205.18 189.58 220.52 182.34 235.64 189.58 235.64 95.78 220.74 103.45 205.18 95.78 190.27 103.45 174.28 95.78 159.81 103.23 144.25 95.78"/><circle class="cls-4" cx="243.47" cy="115.12" r="2.96"/><circle class="cls-4" cx="243.47" cy="126.3" r="2.96"/><circle class="cls-4" cx="243.47" cy="137.23" r="2.96"/><circle class="cls-4" cx="243.47" cy="148.32" r="2.96"/><circle class="cls-4" cx="243.47" cy="159.33" r="2.96"/><circle class="cls-4" cx="243.47" cy="170.43" r="2.96"/><circle class="cls-4" cx="253.42" cy="120.79" r="2.96"/><circle class="cls-4" cx="253.42" cy="131.72" r="2.96"/><circle class="cls-4" cx="253.42" cy="142.82" r="2.96"/><circle class="cls-4" cx="253.42" cy="153.83" r="2.96"/><circle class="cls-4" cx="253.42" cy="164.92" r="2.96"/><circle class="cls-4" cx="263.36" cy="126.13" r="2.96"/><circle class="cls-4" cx="263.36" cy="137.23" r="2.96"/><circle class="cls-4" cx="263.36" cy="148.24" r="2.96"/><circle class="cls-4" cx="263.36" cy="159.33" r="2.96"/><rect class="cls-5" x="99.71" y="107.64" width="26.96" height="68.38" rx="7.8"/><rect class="cls-3" x="112.56" y="115.51" width="12.96" height="3.92"/><rect class="cls-3" x="112.56" y="121.64" width="12.96" height="3.92"/><rect class="cls-3" x="112.56" y="134.25" width="12.96" height="3.92"/><rect class="cls-3" x="112.56" y="139.94" width="12.96" height="3.92"/><rect class="cls-3" x="112.56" y="145.97" width="12.96" height="3.92"/><rect class="cls-3" x="112.56" y="158.46" width="12.96" height="3.92"/><rect class="cls-3" x="112.56" y="164.27" width="12.96" height="3.92"/></svg>