<svg id="Layer_2" data-name="Layer 2" xmlns="http://www.w3.org/2000/svg" xmlns:xlink="http://www.w3.org/1999/xlink" viewBox="0 0 363.4 284.92"><defs><style>.cls-1{fill:#f7f8f8;}.cls-2{fill:url(#linear-gradient);}.cls-3{fill:url(#linear-gradient-2);}.cls-4{fill:#d0d6d8;}.cls-5,.cls-6{fill:#fff;}.cls-6{stroke:#d0d6d8;stroke-miterlimit:10;stroke-width:2.54px;}</style><linearGradient id="linear-gradient" x1="113.4" y1="143.48" x2="144.64" y2="143.48" gradientUnits="userSpaceOnUse"><stop offset="0" stop-color="#08d18b"/><stop offset="1" stop-color="#25b9ef"/></linearGradient><linearGradient id="linear-gradient-2" x1="223.9" y1="143.48" x2="254.79" y2="143.48" xlink:href="#linear-gradient"/></defs><rect class="cls-1" x="-2.43" y="-2.39" width="367.86" height="288.77"/><path class="cls-2" d="M144.64,102.32H119.41a6,6,0,0,0-6,6v70.28a6,6,0,0,0,6,6h25.23Z"/><path class="cls-3" d="M248.77,102.32H223.9v82.32h24.87a6,6,0,0,0,6-6V108.34A6,6,0,0,0,248.77,102.32Z"/><polygon class="cls-4" points="144.64 102.34 144.64 183.69 157.79 177.4 171.12 183.88 184.46 177.4 197.6 183.88 210.94 177.59 224.09 183.88 224.09 102.34 211.13 109 197.6 102.34 184.65 109 170.74 102.34 158.17 108.81 144.64 102.34"/><circle class="cls-5" cx="230.9" cy="119.15" r="2.57"/><circle class="cls-5" cx="230.9" cy="128.87" r="2.57"/><circle class="cls-5" cx="230.9" cy="138.37" r="2.57"/><circle class="cls-5" cx="230.9" cy="148.01" r="2.57"/><circle class="cls-5" cx="230.9" cy="157.59" r="2.57"/><circle class="cls-5" cx="230.9" cy="167.23" r="2.57"/><circle class="cls-5" cx="239.54" cy="124.08" r="2.57"/><circle class="cls-5" cx="239.54" cy="133.58" r="2.57"/><circle class="cls-5" cx="239.54" cy="143.23" r="2.57"/><circle class="cls-5" cx="239.54" cy="152.8" r="2.57"/><circle class="cls-5" cx="239.54" cy="162.44" r="2.57"/><circle class="cls-5" cx="248.19" cy="128.72" r="2.57"/><circle class="cls-5" cx="248.19" cy="138.37" r="2.57"/><circle class="cls-5" cx="248.19" cy="147.94" r="2.57"/><circle class="cls-5" cx="248.19" cy="157.59" r="2.57"/><rect class="cls-6" x="105.92" y="112.64" width="23.43" height="59.44" rx="6.78"/><rect class="cls-4" x="117.09" y="119.49" width="11.27" height="3.41"/><rect class="cls-4" x="117.09" y="124.82" width="11.27" height="3.41"/><rect class="cls-4" x="117.09" y="135.78" width="11.27" height="3.41"/><rect class="cls-4" x="117.09" y="140.73" width="11.27" height="3.41"/><rect class="cls-4" x="117.09" y="145.97" width="11.27" height="3.41"/><rect class="cls-4" x="117.09" y="156.83" width="11.27" height="3.41"/><rect class="cls-4" x="117.09" y="161.88" width="11.27" height="3.41"/></svg>