<svg id="Layer_2" data-name="Layer 2" xmlns="http://www.w3.org/2000/svg" viewBox="0 0 363.4 284.92"><defs><style>.cls-1{fill:#f7f8f8;}.cls-2{fill:#d0d6d8;}.cls-3{fill:#fff;}</style></defs><rect class="cls-1" x="-1.43" y="-2.39" width="367.86" height="288.77"/><path class="cls-2" d="M224.4,95.9H143.84a13.44,13.44,0,0,0-13.42,13.43v60.42a13.44,13.44,0,0,0,13.42,13.43H164V200.8a2.52,2.52,0,0,0,4,2l26.2-19.65H224.4a13.45,13.45,0,0,0,13.43-13.43V109.33A13.45,13.45,0,0,0,224.4,95.9Z"/><path class="cls-3" d="M176.39,105.25a19.53,19.53,0,1,0,19.53,19.53A19.53,19.53,0,0,0,176.39,105.25Zm-.41,6.47a12.94,12.94,0,0,0-12.13,9.54,1.7,1.7,0,0,1-1.77,1.51,1.38,1.38,0,0,1-1.5-1.51A16.1,16.1,0,0,1,176,108.55s1.72,0,1.72,1.57S176,111.72,176,111.72Z"/><path class="cls-3" d="M199.81,144.11A10.2,10.2,0,1,0,210,154.31,10.2,10.2,0,0,0,199.81,144.11Zm-.08,5.16a4.88,4.88,0,0,0-4.66,3.93,1.18,1.18,0,0,1-1.26,1.1,1.13,1.13,0,0,1-1.22-1.1,7.33,7.33,0,0,1,7.14-6.37s1.33,0,1.33,1.22S199.73,149.27,199.73,149.27Z"/><circle class="cls-3" cx="184.53" cy="171.17" r="4.62"/></svg>