<?xml version="1.0" encoding="utf-8"?>
<!-- Generator: Adobe Illustrator 25.4.1, SVG Export Plug-In . SVG Version: 6.00 Build 0)  -->
<svg version="1.1" id="Layer_2_00000134937219670604754300000009953903152421041339_"
	 xmlns="http://www.w3.org/2000/svg" xmlns:xlink="http://www.w3.org/1999/xlink" x="0px" y="0px" viewBox="0 0 363.4 284.9"
	 style="enable-background:new 0 0 363.4 284.9;" xml:space="preserve">
<style type="text/css">
	.st0{fill:#F7F8F8;}
	.st1{fill:#25B9EF;}
	.st2{fill:#FFFFFF;}
</style>
<rect x="-2.5" y="-2.2" class="st0" width="367.9" height="288.8"/>
<path class="st1" d="M126.9,105.6h107.1c3,0,5.5,2.5,5.5,5.5v55.5c0,3-2.5,5.5-5.5,5.5H126.9c-3,0-5.5-2.5-5.5-5.5v-55.5
	C121.3,108,123.8,105.6,126.9,105.6z"/>
<path class="st2" d="M158.4,140.2c0.5,0.7,0.8,1.6,0.8,2.5c0.1,1.2-0.5,2.4-1.4,3.2c-1.2,0.8-2.6,1.2-4,1.1h-6.9v-15.9h6.7
	c1.4-0.1,2.7,0.3,3.8,1.1c1.7,1.3,1.9,3.7,0.6,5.4c-0.5,0.6-1.1,1-1.8,1.3C157.1,139.1,157.9,139.5,158.4,140.2z M149.2,138.1h4
	c2.2,0,3.3-0.9,3.3-2.6s-1.1-2.5-3.3-2.5h-4V138.1z M156.1,144.6c0.6-0.5,0.9-1.2,0.8-2c0.1-0.8-0.2-1.5-0.8-2
	c-0.7-0.5-1.6-0.7-2.5-0.7h-4.4v5.3h4.4C154.5,145.3,155.4,145,156.1,144.6z"/>
<path class="st2" d="M171.8,135.8v11.3h-2.2v-1.9c-0.3,0.6-0.8,1.2-1.5,1.5c-0.7,0.4-1.4,0.5-2.1,0.5c-2.7,0-4.1-1.5-4.1-4.5v-6.9
	h2.2v6.9c0,0.7,0.2,1.4,0.6,2c0.4,0.5,1.1,0.7,1.7,0.7c0.8,0,1.6-0.3,2.2-0.9c0.6-0.7,0.9-1.5,0.8-2.4v-6.3L171.8,135.8z"/>
<path class="st2" d="M178.1,137.5v5.7c-0.1,0.6,0.1,1.2,0.5,1.6c0.4,0.3,0.9,0.5,1.4,0.5c0.4,0,0.8-0.1,1.2-0.2v1.9
	c-0.5,0.2-1.1,0.2-1.7,0.2c-1,0.1-2-0.3-2.7-1c-0.7-0.8-1.1-1.8-1-2.9v-5.8h-2.2v-1.7h2.2V133l2.3-0.8v3.6h3.1v1.7L178.1,137.5z"/>
<path class="st2" d="M186.2,137.5v5.7c-0.1,0.6,0.1,1.2,0.5,1.6c0.4,0.3,0.9,0.5,1.4,0.5c0.4,0,0.8-0.1,1.2-0.2v1.9
	c-0.5,0.2-1.1,0.2-1.7,0.2c-1,0.1-2-0.3-2.7-1c-0.7-0.8-1.1-1.8-1-2.9v-5.8h-2.2v-1.7h2.2V133l2.2-0.8v3.6h3.1v1.7L186.2,137.5z"/>
<path class="st2" d="M193.3,146.5c-0.8-0.5-1.5-1.2-1.9-2c-0.5-1-0.7-2-0.7-3.1c0-1.1,0.2-2.1,0.7-3.1c0.4-0.8,1.1-1.5,1.9-2
	c1.8-1,4-1,5.8,0c0.8,0.5,1.5,1.2,1.9,2c0.5,1,0.7,2,0.7,3.1c0,1.1-0.2,2.1-0.7,3.1c-0.4,0.8-1.1,1.5-1.9,2
	C197.3,147.4,195.1,147.4,193.3,146.5z M198.6,144.4c1.1-1.8,1.1-4.2,0-6c-0.6-0.7-1.5-1.1-2.4-1c-0.9-0.1-1.8,0.3-2.4,1
	c-1.1,1.8-1.1,4.2,0,6c1.2,1.3,3.3,1.4,4.6,0.1C198.5,144.5,198.5,144.4,198.6,144.4L198.6,144.4z"/>
<path class="st2" d="M214.4,140v7h-2.3v-6.9c0.1-0.8-0.1-1.5-0.6-2.1c-0.5-0.5-1.1-0.7-1.8-0.7c-0.9,0-1.7,0.3-2.3,0.9
	c-0.6,0.6-0.9,1.5-0.9,2.4v6.4h-2.2v-8c0-1.1-0.1-2.1-0.2-3.2h2.1l0.2,1.9c0.3-0.7,0.9-1.3,1.6-1.6c0.7-0.4,1.5-0.6,2.3-0.6
	C213,135.5,214.4,137,214.4,140z"/>
</svg>
