<svg id="Layer_2" data-name="Layer 2" xmlns="http://www.w3.org/2000/svg" xmlns:xlink="http://www.w3.org/1999/xlink" viewBox="0 0 363.4 284.92"><defs><style>.cls-1{fill:#f7f8f8;}.cls-2{fill:url(#linear-gradient);}.cls-3{fill:#fff;}</style><linearGradient id="linear-gradient" x1="121.35" y1="138.81" x2="239.46" y2="138.81" gradientUnits="userSpaceOnUse"><stop offset="0" stop-color="#08d18b"/><stop offset="1" stop-color="#25b9ef"/></linearGradient></defs><rect class="cls-1" x="-2.45" y="-2.23" width="367.86" height="288.77"/><rect class="cls-2" x="121.35" y="105.56" width="118.11" height="66.51" rx="5.52"/><path class="cls-3" d="M158.44,140.24a4,4,0,0,1,.76,2.48,3.87,3.87,0,0,1-1.42,3.2,6.19,6.19,0,0,1-4,1.14h-6.88V131.14h6.66a6,6,0,0,1,3.83,1.09,3.82,3.82,0,0,1-1.13,6.62A3.92,3.92,0,0,1,158.44,140.24Zm-9.23-2.19h4c2.22,0,3.33-.86,3.33-2.57s-1.11-2.49-3.33-2.49h-4Zm6.93,6.51a2.37,2.37,0,0,0,.8-2,2.47,2.47,0,0,0-.81-2,4,4,0,0,0-2.54-.66h-4.38v5.3h4.38A4.09,4.09,0,0,0,156.14,144.56Z"/><path class="cls-3" d="M171.83,135.79v11.27h-2.19v-1.88a3.75,3.75,0,0,1-1.47,1.51,4.31,4.31,0,0,1-2.13.52q-4.06,0-4.07-4.51v-6.91h2.24v6.89a3.07,3.07,0,0,0,.57,2,2.17,2.17,0,0,0,1.73.66,2.93,2.93,0,0,0,2.23-.89,3.33,3.33,0,0,0,.83-2.37v-6.33Z"/><path class="cls-3" d="M178.07,137.53v5.66a2.23,2.23,0,0,0,.5,1.64,2,2,0,0,0,1.4.48,4.19,4.19,0,0,0,1.19-.18V147a5.5,5.5,0,0,1-1.68.24,3.61,3.61,0,0,1-2.71-1,3.94,3.94,0,0,1-1-2.86v-5.84h-2.19v-1.74h2.19V133l2.26-.78v3.6h3.11v1.74Z"/><path class="cls-3" d="M186.16,137.53v5.66a2.19,2.19,0,0,0,.51,1.64,1.92,1.92,0,0,0,1.39.48,4.14,4.14,0,0,0,1.19-.18V147a5.41,5.41,0,0,1-1.68.24,3.58,3.58,0,0,1-2.7-1,3.94,3.94,0,0,1-1-2.86v-5.84h-2.2v-1.74h2.2V133l2.25-.78v3.6h3.11v1.74Z"/><path class="cls-3" d="M193.3,146.5a4.9,4.9,0,0,1-1.94-2,6.66,6.66,0,0,1-.68-3.08,6.77,6.77,0,0,1,.68-3.1,4.84,4.84,0,0,1,1.94-2,6.18,6.18,0,0,1,5.79,0,4.82,4.82,0,0,1,1.93,2,6.65,6.65,0,0,1,.68,3.1,6.54,6.54,0,0,1-.68,3.08,4.87,4.87,0,0,1-1.93,2,6.26,6.26,0,0,1-5.79,0Zm5.27-2.1a5.84,5.84,0,0,0,0-6,2.84,2.84,0,0,0-2.36-1,2.9,2.9,0,0,0-2.39,1,5.78,5.78,0,0,0,0,6,3.28,3.28,0,0,0,4.77,0Z"/><path class="cls-3" d="M214.38,140v7h-2.26v-6.89a3.31,3.31,0,0,0-.57-2.15,2.29,2.29,0,0,0-1.82-.67,3,3,0,0,0-2.29.9,3.26,3.26,0,0,0-.86,2.39v6.42h-2.24V139a25.25,25.25,0,0,0-.18-3.17h2.1l.2,1.94a3.8,3.8,0,0,1,1.56-1.64,4.65,4.65,0,0,1,2.31-.57Q214.38,135.52,214.38,140Z"/></svg>