<svg id="Layer_2" data-name="Layer 2" xmlns="http://www.w3.org/2000/svg" viewBox="0 0 363.4 284.92"><defs><style>.cls-1{fill:#f7f8f8;}.cls-2{fill:#d0d6d8;}</style></defs><rect class="cls-1" x="-2.45" y="-1.57" width="367.86" height="288.77"/><path class="cls-2" d="M187.12,119.11V95.5H152.41a4.16,4.16,0,0,0-4.17,4.17V180.2a4.16,4.16,0,0,0,4.17,4.17h58.31a4.16,4.16,0,0,0,4.17-4.17V123.27h-23.6A4.17,4.17,0,0,1,187.12,119.11Zm11.11,41a2.08,2.08,0,0,1-2.08,2.08H167a2.09,2.09,0,0,1-2.09-2.08v-1.39A2.09,2.09,0,0,1,167,156.6h29.16a2.09,2.09,0,0,1,2.08,2.08Zm0-11.11a2.08,2.08,0,0,1-2.08,2.08H167A2.09,2.09,0,0,1,164.9,149v-1.39a2.09,2.09,0,0,1,2.09-2.08h29.16a2.09,2.09,0,0,1,2.08,2.08Zm0-12.49v1.38a2.09,2.09,0,0,1-2.08,2.09H167a2.1,2.1,0,0,1-2.09-2.09v-1.38a2.1,2.1,0,0,1,2.09-2.09h29.16A2.09,2.09,0,0,1,198.23,136.47Zm16.66-19.81v1.06H192.67V95.5h1.06a4.17,4.17,0,0,1,3,1.22l17,17A4.12,4.12,0,0,1,214.89,116.66Z"/></svg>