<svg id="Layer_2" data-name="Layer 2" xmlns="http://www.w3.org/2000/svg" viewBox="0 0 363.4 284.92"><defs><style>.cls-1{fill:#f7f8f8;}.cls-2{fill:#d0d6d8;}.cls-3{fill:none;stroke:#a5b2b8;stroke-linecap:round;stroke-miterlimit:10;stroke-width:2.33px;}</style></defs><rect class="cls-1" x="-1.78" y="-1.57" width="367.86" height="288.77"/><path class="cls-2" d="M239.49,129.11h-9v16.4a1.49,1.49,0,0,1-1.49,1.49h-3a1.49,1.49,0,0,1-1.49-1.49v-16.4H212.66v16.4a1.49,1.49,0,0,1-1.49,1.49h-3a1.49,1.49,0,0,1-1.49-1.49v-16.4H194.77v16.4a1.49,1.49,0,0,1-1.49,1.49h-3a1.49,1.49,0,0,1-1.49-1.49v-16.4H176.89v16.4a1.5,1.5,0,0,1-1.5,1.49h-3a1.49,1.49,0,0,1-1.49-1.49v-16.4H159v16.4a1.49,1.49,0,0,1-1.49,1.49h-3a1.49,1.49,0,0,1-1.49-1.49v-16.4h-8.95a6,6,0,0,0-6,6v35.78a6,6,0,0,0,6,6h95.4a6,6,0,0,0,6-6V135.07A6,6,0,0,0,239.49,129.11Z"/><line class="cls-3" x1="137.76" y1="108.8" x2="242.35" y2="108.8"/></svg>