<svg id="Layer_2" data-name="Layer 2" xmlns="http://www.w3.org/2000/svg" xmlns:xlink="http://www.w3.org/1999/xlink" viewBox="0 0 363.4 284.92"><defs><style>.cls-1{fill:#f7f8f8;}.cls-2{fill:url(#linear-gradient);}.cls-3{fill:url(#linear-gradient-2);}</style><linearGradient id="linear-gradient" x1="138.13" y1="152.96" x2="245.45" y2="152.96" gradientUnits="userSpaceOnUse"><stop offset="0" stop-color="#08d18b"/><stop offset="1" stop-color="#25b9ef"/></linearGradient><linearGradient id="linear-gradient-2" x1="136.59" y1="108.8" x2="243.51" y2="108.8" xlink:href="#linear-gradient"/></defs><rect class="cls-1" x="-1.78" y="-1.57" width="367.86" height="288.77"/><path class="cls-2" d="M239.49,129.11h-9v16.4a1.49,1.49,0,0,1-1.49,1.49h-3a1.49,1.49,0,0,1-1.49-1.49v-16.4H212.66v16.4a1.49,1.49,0,0,1-1.49,1.49h-3a1.49,1.49,0,0,1-1.49-1.49v-16.4H194.77v16.4a1.49,1.49,0,0,1-1.49,1.49h-3a1.49,1.49,0,0,1-1.49-1.49v-16.4H176.89v16.4a1.5,1.5,0,0,1-1.5,1.49h-3a1.49,1.49,0,0,1-1.49-1.49v-16.4H159v16.4a1.49,1.49,0,0,1-1.49,1.49h-3a1.49,1.49,0,0,1-1.49-1.49v-16.4h-8.95a6,6,0,0,0-6,6v35.78a6,6,0,0,0,6,6h95.4a6,6,0,0,0,6-6V135.07A6,6,0,0,0,239.49,129.11Z"/><path class="cls-3" d="M242.35,110H137.76a1.17,1.17,0,1,1,0-2.33H242.35a1.17,1.17,0,0,1,0,2.33Z"/></svg>