<svg id="Layer_2" data-name="Layer 2" xmlns="http://www.w3.org/2000/svg" xmlns:xlink="http://www.w3.org/1999/xlink" viewBox="0 0 363.4 284.92"><defs><style>.cls-1{fill:#f7f8f8;}.cls-2,.cls-5{fill:#fff;}.cls-2{stroke:#a5b2b8;stroke-linecap:round;stroke-miterlimit:10;stroke-width:1.78px;}.cls-3{fill:#0e1e2a;}.cls-4{fill:url(#linear-gradient);}.cls-5{font-size:19.5px;font-family:Muli-SemiBold, Muli;font-weight:600;}.cls-6{letter-spacing:-0.01em;}</style><linearGradient id="linear-gradient" x1="198.18" y1="136.48" x2="292.11" y2="136.48" gradientUnits="userSpaceOnUse"><stop offset="0" stop-color="#25b9ef"/><stop offset="1" stop-color="#08d18b"/></linearGradient></defs><rect class="cls-1" x="-1.48" y="-2.68" width="367.86" height="288.77"/><rect class="cls-2" x="80.06" y="111.14" width="199.25" height="50.77" rx="8.89"/><path class="cls-3" d="M92.51,143.56V129.67h1.6v13.89Z"/><path class="cls-3" d="M97.35,143.56V136.5c0-.45,0-.91,0-1.37a12.64,12.64,0,0,0-.13-1.38h1.5l.18,2-.2.16a3.38,3.38,0,0,1,1.37-1.81,4,4,0,0,1,2.2-.61q3.54,0,3.54,3.88v6.16H104.2v-6.08a3,3,0,0,0-.55-2,2.13,2.13,0,0,0-1.72-.64,2.89,2.89,0,0,0-2.18.84,3.09,3.09,0,0,0-.82,2.26v5.62Z"/><path class="cls-3" d="M108.76,147.78V136.5c0-.45,0-.91,0-1.37a12.64,12.64,0,0,0-.13-1.38h1.51l.17,2-.15.29a3.26,3.26,0,0,1,1.26-1.89,3.85,3.85,0,0,1,2.27-.66,4,4,0,0,1,2.27.64,4.35,4.35,0,0,1,1.54,1.79,6.17,6.17,0,0,1,.56,2.7,6.08,6.08,0,0,1-.56,2.68,4.19,4.19,0,0,1-1.53,1.76,4.27,4.27,0,0,1-2.28.61,3.85,3.85,0,0,1-2.27-.66,3.32,3.32,0,0,1-1.26-1.9l.21-.19v6.83Zm4.6-5.39a2.72,2.72,0,0,0,2.23-1,4.29,4.29,0,0,0,.8-2.77,4.4,4.4,0,0,0-.8-2.8,3,3,0,0,0-4.47,0,4.37,4.37,0,0,0-.78,2.79,4.42,4.42,0,0,0,.78,2.8A2.71,2.71,0,0,0,113.36,142.39Z"/><path class="cls-3" d="M123.94,143.7a3.39,3.39,0,0,1-2.65-1,4.15,4.15,0,0,1-.88-2.88v-6.09H122v6.05a3,3,0,0,0,.54,1.95,2.09,2.09,0,0,0,1.66.62,2.78,2.78,0,0,0,2.11-.84,3.1,3.1,0,0,0,.8-2.24v-5.54h1.58v9.81h-1.54v-2.12l.23-.12a3.31,3.31,0,0,1-1.32,1.78A3.78,3.78,0,0,1,123.94,143.7Z"/><path class="cls-3" d="M130.34,135v-1.25h6.3V135Zm6.26,7.16v1.34a4,4,0,0,1-.65.15,5.31,5.31,0,0,1-.72,0,3,3,0,0,1-2.17-.78,3.11,3.11,0,0,1-.81-2.34v-9.35l1.58-.56v9.69a2.64,2.64,0,0,0,.22,1.21,1.24,1.24,0,0,0,.62.6,2.23,2.23,0,0,0,.88.16,2.75,2.75,0,0,0,.52,0A3.38,3.38,0,0,0,136.6,142.16Z"/><path class="cls-4" d="M198.18,110.2H283.6a8.51,8.51,0,0,1,8.51,8.51v35.55a8.51,8.51,0,0,1-8.51,8.51H198.18a0,0,0,0,1,0,0V110.2A0,0,0,0,1,198.18,110.2Z"/><text class="cls-5" transform="translate(211.43 143.3) scale(1.01 1)"><tspan class="cls-6">C</tspan><tspan x="13.15" y="0">ombo</tspan></text></svg>