<svg id="Layer_2" data-name="Layer 2" xmlns="http://www.w3.org/2000/svg" viewBox="0 0 363.4 284.92"><defs><style>.cls-1{fill:#f7f8f8;}.cls-2{fill:#fff;stroke:#d0d6d8;stroke-miterlimit:10;}.cls-3{fill:#bcc5ca;}</style></defs><rect class="cls-1" x="-2.28" y="-1.9" width="367.86" height="288.77"/><rect class="cls-2" x="78.96" y="117.55" width="200.06" height="50.84" rx="8.92"/><path class="cls-3" d="M91.46,150V136.08h1.6V150Z"/><path class="cls-3" d="M96.29,150v-7.06c0-.45,0-.91,0-1.37s-.07-.92-.13-1.38h1.5l.18,2-.2.16A3.34,3.34,0,0,1,99,140.54a4,4,0,0,1,2.2-.61c2.36,0,3.53,1.29,3.53,3.88V150h-1.58v-6.08a3,3,0,0,0-.54-2,2.17,2.17,0,0,0-1.72-.64,2.93,2.93,0,0,0-2.19.84,3.14,3.14,0,0,0-.81,2.27V150Z"/><path class="cls-3" d="M107.71,154.19V142.91c0-.45,0-.91,0-1.37a12.87,12.87,0,0,0-.13-1.38h1.5l.18,2-.16.29a3.28,3.28,0,0,1,1.27-1.89,3.82,3.82,0,0,1,2.26-.66,4.08,4.08,0,0,1,2.28.64,4.39,4.39,0,0,1,1.54,1.8,6.83,6.83,0,0,1,0,5.37,4,4,0,0,1-3.82,2.37,3.82,3.82,0,0,1-2.26-.66,3.28,3.28,0,0,1-1.27-1.89l.22-.2v6.83Zm4.6-5.39a2.73,2.73,0,0,0,2.23-1,4.29,4.29,0,0,0,.79-2.77,4.4,4.4,0,0,0-.79-2.8,3,3,0,0,0-4.47,0,4.37,4.37,0,0,0-.78,2.79,4.42,4.42,0,0,0,.78,2.8A2.68,2.68,0,0,0,112.31,148.8Z"/><path class="cls-3" d="M122.88,150.11a3.39,3.39,0,0,1-2.64-1,4.18,4.18,0,0,1-.89-2.89v-6.09h1.58v6.05a3,3,0,0,0,.55,1.95,2.07,2.07,0,0,0,1.66.62,2.82,2.82,0,0,0,2.11-.83,3.14,3.14,0,0,0,.79-2.25v-5.54h1.59V150h-1.55v-2.12l.24-.12a3.31,3.31,0,0,1-1.32,1.78A3.81,3.81,0,0,1,122.88,150.11Z"/><path class="cls-3" d="M129.28,141.41v-1.25h6.3v1.25Zm6.27,7.16v1.35a5.18,5.18,0,0,1-.66.14,5,5,0,0,1-.71.05,3,3,0,0,1-2.17-.78,3.11,3.11,0,0,1-.81-2.34v-9.34l1.58-.57v9.7A2.59,2.59,0,0,0,133,148a1.2,1.2,0,0,0,.62.6,2.21,2.21,0,0,0,.87.17,4.09,4.09,0,0,0,.53,0A5.31,5.31,0,0,0,135.55,148.57Z"/><path class="cls-3" d="M146.14,150V137.45H141.3v-1.37h11.3v1.37h-4.84V150Z"/><path class="cls-3" d="M160.89,148.8a4.44,4.44,0,0,1-1.65,1,6.32,6.32,0,0,1-2.06.35,5.39,5.39,0,0,1-2.62-.6,4.16,4.16,0,0,1-1.7-1.75,6.4,6.4,0,0,1,0-5.39,4.38,4.38,0,0,1,1.63-1.8,4.47,4.47,0,0,1,2.41-.64,4.21,4.21,0,0,1,2.24.57,3.81,3.81,0,0,1,1.44,1.65,6.16,6.16,0,0,1,.49,2.58V145h-7.41v-1h6.52l-.51.72a4.14,4.14,0,0,0-.67-2.64,2.48,2.48,0,0,0-2.08-.91,2.72,2.72,0,0,0-2.24,1,5.26,5.26,0,0,0,0,5.67,3.13,3.13,0,0,0,2.49,1,4.85,4.85,0,0,0,1.65-.28,5.14,5.14,0,0,0,1.51-.87Z"/><path class="cls-3" d="M164,150H162l4.08-5.05.91-1.15,2.85-3.61h1.93L168,144.92l-1,1.19Zm6.17,0L167,146.11l-.91-1.19-3.85-4.76h1.92l2.84,3.61,1,1.15,4,5.05Z"/><path class="cls-3" d="M172.38,141.41v-1.25h6.3v1.25Zm6.26,7.16v1.35a5.42,5.42,0,0,1-.65.14,5.16,5.16,0,0,1-.71.05,3,3,0,0,1-2.18-.78,3.11,3.11,0,0,1-.81-2.34v-9.34l1.58-.57v9.7a2.73,2.73,0,0,0,.22,1.2,1.24,1.24,0,0,0,.62.6,2.23,2.23,0,0,0,.88.17,3.93,3.93,0,0,0,.52,0A4.69,4.69,0,0,0,178.64,148.57Z"/></svg>