<svg id="Layer_2" data-name="Layer 2" xmlns="http://www.w3.org/2000/svg" xmlns:xlink="http://www.w3.org/1999/xlink" viewBox="0 0 363.4 284.92"><defs><style>.cls-1{fill:#f7f8f8;}.cls-2{fill:url(#linear-gradient);}</style><linearGradient id="linear-gradient" x1="146.67" y1="141.09" x2="227.85" y2="141.09" gradientUnits="userSpaceOnUse"><stop offset="0" stop-color="#08d18b"/><stop offset="1" stop-color="#25b9ef"/></linearGradient></defs><rect class="cls-1" x="-2.45" y="-2.23" width="367.86" height="288.77"/><path class="cls-2" d="M219.15,181.68H155.37a8.71,8.71,0,0,1-8.7-8.7V109.2a8.71,8.71,0,0,1,8.7-8.7h63.78a8.71,8.71,0,0,1,8.7,8.7V173A8.71,8.71,0,0,1,219.15,181.68Zm-37.09-17.77,33.34-33.34a2.9,2.9,0,0,0,0-4.1l-4.1-4.1a2.9,2.9,0,0,0-4.1,0L180,149.56l-12.69-12.7a2.9,2.9,0,0,0-4.1,0l-4.1,4.1a2.9,2.9,0,0,0,0,4.1L178,163.91a2.9,2.9,0,0,0,4.1,0Z"/></svg>