<svg id="Layer_2" data-name="Layer 2" xmlns="http://www.w3.org/2000/svg" viewBox="0 0 363.4 284.92"><defs><style>.cls-1{fill:#f7f8f8;}.cls-2{fill:#fff;stroke:#d0d6d8;stroke-miterlimit:10;stroke-width:1.36px;}.cls-3{fill:#bcc5ca;}</style></defs><rect class="cls-1" x="-2.45" y="-1.79" width="367.86" height="288.77"/><rect class="cls-2" x="81.9" y="92.42" width="200.06" height="94.61" rx="12.16"/><path class="cls-3" d="M96.39,119.71V105.82H98v13.89Z"/><path class="cls-3" d="M101.23,119.71v-7.06c0-.45,0-.91,0-1.37a12.64,12.64,0,0,0-.13-1.38h1.51l.17,2-.19.16a3.32,3.32,0,0,1,1.36-1.81,4,4,0,0,1,2.21-.61q3.53,0,3.53,3.88v6.16h-1.58v-6.08a3,3,0,0,0-.55-2,2.11,2.11,0,0,0-1.72-.64,2.91,2.91,0,0,0-2.18.84,3.1,3.1,0,0,0-.82,2.27v5.61Z"/><path class="cls-3" d="M112.64,123.93V112.65c0-.45,0-.91,0-1.37s-.06-.92-.12-1.38H114l.17,2-.15.29a3.23,3.23,0,0,1,1.27-1.89,3.8,3.8,0,0,1,2.26-.66,4,4,0,0,1,2.27.64,4.35,4.35,0,0,1,1.54,1.79,6.17,6.17,0,0,1,.56,2.7,6.08,6.08,0,0,1-.56,2.68,4,4,0,0,1-3.81,2.37,3.8,3.8,0,0,1-2.26-.66,3.29,3.29,0,0,1-1.27-1.9l.21-.19v6.83Zm4.61-5.39a2.7,2.7,0,0,0,2.22-1,4.29,4.29,0,0,0,.8-2.77,4.4,4.4,0,0,0-.8-2.8,2.67,2.67,0,0,0-2.22-1,2.72,2.72,0,0,0-2.25,1,4.37,4.37,0,0,0-.78,2.79,4.42,4.42,0,0,0,.78,2.8A2.72,2.72,0,0,0,117.25,118.54Z"/><path class="cls-3" d="M127.82,119.85a3.39,3.39,0,0,1-2.64-1,4.11,4.11,0,0,1-.89-2.88V109.9h1.58v6a2.89,2.89,0,0,0,.55,2,2.05,2.05,0,0,0,1.65.62,2.78,2.78,0,0,0,2.11-.84,3.1,3.1,0,0,0,.8-2.24V109.9h1.58v9.81H131v-2.12l.23-.12a3.34,3.34,0,0,1-1.31,1.78A3.83,3.83,0,0,1,127.82,119.85Z"/><path class="cls-3" d="M134.22,111.15V109.9h6.3v1.25Zm6.26,7.16v1.34a4,4,0,0,1-.65.15,5.16,5.16,0,0,1-.71,0,3,3,0,0,1-2.18-.78,3.11,3.11,0,0,1-.81-2.34v-9.35l1.58-.56v9.69a2.63,2.63,0,0,0,.23,1.21,1.19,1.19,0,0,0,.61.6,2.23,2.23,0,0,0,.88.16,2.75,2.75,0,0,0,.52,0A3.13,3.13,0,0,0,140.48,118.31Z"/><path class="cls-3" d="M151.07,119.71V107.19h-4.83v-1.37h11.29v1.37h-4.84v12.52Z"/><path class="cls-3" d="M165.82,118.54a4.44,4.44,0,0,1-1.65,1,6.26,6.26,0,0,1-2,.35,5.43,5.43,0,0,1-2.63-.6,4.22,4.22,0,0,1-1.7-1.75,5.9,5.9,0,0,1-.59-2.72,6,6,0,0,1,.58-2.68,4.56,4.56,0,0,1,1.63-1.79,4.5,4.5,0,0,1,2.41-.64,4.27,4.27,0,0,1,2.25.57,3.79,3.79,0,0,1,1.43,1.65,6.12,6.12,0,0,1,.5,2.58v.29h-7.42v-1h6.52l-.51.73a4,4,0,0,0-.67-2.64,2.47,2.47,0,0,0-2.08-.91,2.7,2.7,0,0,0-2.23,1,5.26,5.26,0,0,0,0,5.67,3.1,3.1,0,0,0,2.49,1,4.75,4.75,0,0,0,1.64-.28,5.32,5.32,0,0,0,1.52-.87Z"/><path class="cls-3" d="M168.89,119.71H167l4.08-5,.92-1.15,2.85-3.61h1.93l-3.83,4.76-1,1.19Zm6.16,0-3.1-3.86-.92-1.19-3.84-4.76h1.91l2.85,3.61,1,1.15,4,5Z"/><path class="cls-3" d="M177.31,111.15V109.9h6.3v1.25Zm6.27,7.16v1.34a4.16,4.16,0,0,1-.66.15,5,5,0,0,1-.71,0,3,3,0,0,1-2.17-.78,3.11,3.11,0,0,1-.81-2.34v-9.35l1.58-.56v9.69a2.64,2.64,0,0,0,.22,1.21,1.2,1.2,0,0,0,.62.6,2.18,2.18,0,0,0,.87.16,2.86,2.86,0,0,0,.53,0A3.38,3.38,0,0,0,183.58,118.31Z"/><path class="cls-3" d="M189.29,119.85a4.24,4.24,0,0,1-2.29-.61,4,4,0,0,1-1.52-1.76,6.91,6.91,0,0,1,0-5.38,4.26,4.26,0,0,1,1.53-1.79,4,4,0,0,1,2.27-.64,3.84,3.84,0,0,1,2.28.66,3.23,3.23,0,0,1,1.27,1.89l-.23.16V109.9h1.56v9.81h-1.56v-2.53l.23.11a3.29,3.29,0,0,1-1.27,1.9A3.84,3.84,0,0,1,189.29,119.85Zm.31-1.31a2.69,2.69,0,0,0,2.23-1,4.42,4.42,0,0,0,.78-2.8,4.37,4.37,0,0,0-.79-2.79,3,3,0,0,0-4.47,0,4.34,4.34,0,0,0-.81,2.8,4.23,4.23,0,0,0,.81,2.77A2.76,2.76,0,0,0,189.6,118.54Z"/><path class="cls-3" d="M197.23,119.71v-7.06c0-.45,0-.91,0-1.37a12.64,12.64,0,0,0-.13-1.38h1.51l.21,2.42-.21-.06a3,3,0,0,1,1.18-1.94,3.35,3.35,0,0,1,2-.65,3.59,3.59,0,0,1,.47,0,2.61,2.61,0,0,1,.42.08l0,1.45a3,3,0,0,0-1-.16,2.69,2.69,0,0,0-1.63.45,2.64,2.64,0,0,0-.9,1.14,4,4,0,0,0-.28,1.45v5.6Z"/><path class="cls-3" d="M212.14,118.54a4.44,4.44,0,0,1-1.65,1,6.32,6.32,0,0,1-2.06.35,5.43,5.43,0,0,1-2.63-.6,4.14,4.14,0,0,1-1.69-1.75,5.78,5.78,0,0,1-.6-2.72,5.85,5.85,0,0,1,.59-2.68,4.41,4.41,0,0,1,1.63-1.79,4.47,4.47,0,0,1,2.41-.64,4.21,4.21,0,0,1,2.24.57,3.79,3.79,0,0,1,1.43,1.65,6,6,0,0,1,.5,2.58v.29H204.9v-1h6.51l-.5.73a4.07,4.07,0,0,0-.68-2.64,2.45,2.45,0,0,0-2.07-.91,2.72,2.72,0,0,0-2.24,1,5.26,5.26,0,0,0,0,5.67,3.13,3.13,0,0,0,2.49,1,4.85,4.85,0,0,0,1.65-.28,5.27,5.27,0,0,0,1.51-.87Z"/><path class="cls-3" d="M218.48,119.85a4.25,4.25,0,0,1-2.3-.61,4.1,4.1,0,0,1-1.52-1.76,6.22,6.22,0,0,1-.53-2.68,6.32,6.32,0,0,1,.54-2.7,4.4,4.4,0,0,1,1.53-1.79,4.08,4.08,0,0,1,2.28-.64,3.88,3.88,0,0,1,2.28.66,3.28,3.28,0,0,1,1.27,1.89l-.24.16V109.9h1.56v9.81h-1.56v-2.53l.24.11a3.33,3.33,0,0,1-1.27,1.9A3.88,3.88,0,0,1,218.48,119.85Zm.31-1.31a2.68,2.68,0,0,0,2.22-1,4.42,4.42,0,0,0,.78-2.8A4.31,4.31,0,0,0,221,112a2.68,2.68,0,0,0-2.21-1,2.73,2.73,0,0,0-2.25,1,4.34,4.34,0,0,0-.81,2.8,4.23,4.23,0,0,0,.81,2.77A2.76,2.76,0,0,0,218.79,118.54Z"/><rect class="cls-3" x="264.49" y="177.05" width="15.37" height="1" transform="translate(-51.19 209.82) rotate(-38.82)"/><rect class="cls-3" x="268" y="179.21" width="11.55" height="1" transform="translate(-51.92 213.99) rotate(-39.29)"/></svg>