<svg id="Layer_2" data-name="Layer 2" xmlns="http://www.w3.org/2000/svg" viewBox="0 0 363.4 284.92"><defs><style>.cls-1{fill:#f7f8f8;}.cls-2,.cls-5{fill:#fff;}.cls-2{stroke:#d0d6d8;stroke-miterlimit:10;stroke-width:1.01px;}.cls-3{fill:#bcc5ca;}.cls-4{fill:#d0d6d8;}</style></defs><rect class="cls-1" x="-1.48" y="-2.68" width="367.86" height="288.77"/><rect class="cls-2" x="80.15" y="110.89" width="199.25" height="51.28" rx="8.94"/><path class="cls-3" d="M92.61,143.82V129.93h1.6v13.89Z"/><path class="cls-3" d="M97.44,143.82v-7.06q0-.69,0-1.38a12.45,12.45,0,0,0-.12-1.37h1.5l.18,2-.2.15a3.35,3.35,0,0,1,1.37-1.8,4,4,0,0,1,2.2-.62c2.35,0,3.53,1.3,3.53,3.88v6.17h-1.58v-6.09a3.06,3.06,0,0,0-.54-2,2.17,2.17,0,0,0-1.72-.63,2.93,2.93,0,0,0-2.19.84A3.12,3.12,0,0,0,99,138.2v5.62Z"/><path class="cls-3" d="M108.86,148V136.76q0-.69,0-1.38a12.46,12.46,0,0,0-.13-1.37h1.5l.18,2-.16.29a3.28,3.28,0,0,1,1.27-1.89,3.75,3.75,0,0,1,2.26-.67,4.09,4.09,0,0,1,2.28.65,4.36,4.36,0,0,1,1.54,1.79,6.85,6.85,0,0,1,0,5.38,4.16,4.16,0,0,1-1.53,1.75,4.24,4.24,0,0,1-2.29.62,3.75,3.75,0,0,1-2.26-.67,3.28,3.28,0,0,1-1.27-1.89l.22-.19V148Zm4.6-5.38a2.71,2.71,0,0,0,2.22-1,4.22,4.22,0,0,0,.8-2.77,4.36,4.36,0,0,0-.8-2.8,3,3,0,0,0-4.46,0,5.4,5.4,0,0,0,0,5.59A2.67,2.67,0,0,0,113.46,142.65Z"/><path class="cls-3" d="M124,144a3.39,3.39,0,0,1-2.64-1,4.17,4.17,0,0,1-.89-2.89V134h1.58v6a3,3,0,0,0,.55,2,2.11,2.11,0,0,0,1.66.62,2.76,2.76,0,0,0,2.1-.84,3.09,3.09,0,0,0,.8-2.24V134h1.58v9.81h-1.54v-2.13l.24-.11a3.24,3.24,0,0,1-1.32,1.77A3.74,3.74,0,0,1,124,144Z"/><path class="cls-3" d="M130.43,135.26V134h6.3v1.25Zm6.26,7.16v1.34a3.81,3.81,0,0,1-.65.15,5,5,0,0,1-.71.05,3,3,0,0,1-2.18-.78,3.11,3.11,0,0,1-.81-2.34v-9.35l1.58-.57v9.7a2.66,2.66,0,0,0,.23,1.21,1.27,1.27,0,0,0,.61.6,2.26,2.26,0,0,0,.88.16,2.86,2.86,0,0,0,.53,0A3.28,3.28,0,0,0,136.69,142.42Z"/><path class="cls-4" d="M198.27,110.46H283.7a8.51,8.51,0,0,1,8.51,8.51v35.55A8.51,8.51,0,0,1,283.7,163H198.27a0,0,0,0,1,0,0V110.46A0,0,0,0,1,198.27,110.46Z"/><path class="cls-5" d="M215.79,142.85a5.77,5.77,0,0,1-2.32-2.47,9.31,9.31,0,0,1,0-7.55,5.72,5.72,0,0,1,2.32-2.45,6.92,6.92,0,0,1,3.53-.86A7.69,7.69,0,0,1,222,130a5.68,5.68,0,0,1,2.08,1.27l-.71,1.49a6.91,6.91,0,0,0-1.94-1.16,5.81,5.81,0,0,0-2.07-.37A4.19,4.19,0,0,0,216,132.6a6,6,0,0,0-1.19,4,6.13,6.13,0,0,0,1.19,4,4.19,4.19,0,0,0,3.38,1.41,5.81,5.81,0,0,0,2.07-.36,7.16,7.16,0,0,0,1.94-1.16l.71,1.48a5.57,5.57,0,0,1-2.08,1.28,7.94,7.94,0,0,1-2.66.44A6.92,6.92,0,0,1,215.79,142.85Z"/><path class="cls-5" d="M228,143.07a4.21,4.21,0,0,1-1.7-1.77,6.35,6.35,0,0,1,0-5.39,4.26,4.26,0,0,1,1.7-1.79,5.55,5.55,0,0,1,5.1,0,4.26,4.26,0,0,1,1.7,1.79,6.35,6.35,0,0,1,0,5.39,4.21,4.21,0,0,1-1.7,1.77,5.48,5.48,0,0,1-5.1,0Zm4.64-1.83a5.05,5.05,0,0,0,0-5.25,2.5,2.5,0,0,0-2.07-.91,2.53,2.53,0,0,0-2.1.91,5,5,0,0,0,0,5.25,2.89,2.89,0,0,0,4.19,0Z"/><path class="cls-5" d="M252.29,137.44v6.12h-2v-6a3.13,3.13,0,0,0-.44-1.85,1.68,1.68,0,0,0-1.43-.58,2.23,2.23,0,0,0-1.8.78A3.17,3.17,0,0,0,246,138v5.56h-2v-6a3.05,3.05,0,0,0-.45-1.85,1.66,1.66,0,0,0-1.42-.58,2.25,2.25,0,0,0-1.81.78,3.12,3.12,0,0,0-.67,2.12v5.56h-2V136.5a21,21,0,0,0-.16-2.77h1.85l.18,1.64a3.23,3.23,0,0,1,1.24-1.39,3.64,3.64,0,0,1,1.89-.48,2.88,2.88,0,0,1,3,1.89A3.33,3.33,0,0,1,247,134a4,4,0,0,1,2-.5C251.18,133.5,252.29,134.81,252.29,137.44Z"/><path class="cls-5" d="M262.69,134.12a4.18,4.18,0,0,1,1.56,1.78,6.72,6.72,0,0,1,0,5.35,4.38,4.38,0,0,1-1.57,1.8,4.13,4.13,0,0,1-2.28.65,4,4,0,0,1-2-.48,3,3,0,0,1-1.28-1.38v1.72h-2V129.21h2v6.14a3.08,3.08,0,0,1,1.28-1.37,4,4,0,0,1,2-.48A4.22,4.22,0,0,1,262.69,134.12Zm-.67,7.07a4.11,4.11,0,0,0,.75-2.62A4,4,0,0,0,262,136a2.86,2.86,0,0,0-4.18,0,5,5,0,0,0,0,5.23,2.54,2.54,0,0,0,2.1.92A2.51,2.51,0,0,0,262,141.19Z"/><path class="cls-5" d="M268.83,143.07a4.15,4.15,0,0,1-1.7-1.77,6.35,6.35,0,0,1,0-5.39,4.2,4.2,0,0,1,1.7-1.79,5.06,5.06,0,0,1,2.56-.62,5,5,0,0,1,2.53.62,4.22,4.22,0,0,1,1.71,1.79,6.35,6.35,0,0,1,0,5.39,4.17,4.17,0,0,1-1.71,1.77,5,5,0,0,1-2.53.63A5.06,5.06,0,0,1,268.83,143.07Zm4.64-1.83a5.05,5.05,0,0,0,0-5.25,2.5,2.5,0,0,0-2.07-.91,2.57,2.57,0,0,0-2.11.91,5,5,0,0,0,0,5.25,2.56,2.56,0,0,0,2.1.9A2.53,2.53,0,0,0,273.47,141.24Z"/></svg>