<svg id="Layer_2" data-name="Layer 2" xmlns="http://www.w3.org/2000/svg" viewBox="0 0 363.4 284.92"><defs><style>.cls-1{fill:#f7f8f8;}.cls-2{fill:#fff;stroke:#d0d6d8;stroke-miterlimit:10;}.cls-3{fill:#bcc5ca;}</style></defs><rect class="cls-1" x="-1.78" y="-2.23" width="367.86" height="288.77"/><rect class="cls-2" x="82.12" y="117.22" width="200.06" height="50.84" rx="8.92"/><path class="cls-3" d="M94.62,149.64V135.75h1.6v13.89Z"/><path class="cls-3" d="M99.45,149.64v-7.06c0-.46,0-.91,0-1.38s-.06-.92-.12-1.37h1.5l.18,2-.2.15a3.35,3.35,0,0,1,1.37-1.8,4,4,0,0,1,2.2-.61q3.53,0,3.53,3.88v6.16H106.3v-6.08a3,3,0,0,0-.54-2,2.14,2.14,0,0,0-1.72-.64,2.93,2.93,0,0,0-2.19.84A3.13,3.13,0,0,0,101,144v5.62Z"/><path class="cls-3" d="M110.87,153.86V142.58c0-.46,0-.91,0-1.38s-.07-.92-.13-1.37h1.5l.18,2-.16.29a3.28,3.28,0,0,1,1.27-1.89,3.82,3.82,0,0,1,2.26-.66,4.08,4.08,0,0,1,2.28.64,4.43,4.43,0,0,1,1.54,1.79,6.17,6.17,0,0,1,.55,2.7,6.08,6.08,0,0,1-.55,2.68,4.25,4.25,0,0,1-1.53,1.76,4.3,4.3,0,0,1-2.29.61,3.82,3.82,0,0,1-2.26-.66,3.33,3.33,0,0,1-1.27-1.9l.22-.19v6.83Zm4.6-5.39a2.7,2.7,0,0,0,2.22-1,4.23,4.23,0,0,0,.8-2.77,4.34,4.34,0,0,0-.8-2.8,3,3,0,0,0-4.46,0,4.37,4.37,0,0,0-.78,2.79,4.42,4.42,0,0,0,.78,2.8A2.7,2.7,0,0,0,115.47,148.47Z"/><path class="cls-3" d="M126,149.78a3.39,3.39,0,0,1-2.64-1,4.16,4.16,0,0,1-.89-2.88v-6.09h1.58v6a2.89,2.89,0,0,0,.55,2,2.07,2.07,0,0,0,1.66.62,2.76,2.76,0,0,0,2.1-.84,3.07,3.07,0,0,0,.8-2.24v-5.54h1.58v9.81h-1.54v-2.12l.24-.12a3.24,3.24,0,0,1-1.32,1.77A3.74,3.74,0,0,1,126,149.78Z"/><path class="cls-3" d="M132.44,141.08v-1.25h6.3v1.25Zm6.26,7.16v1.34a3.81,3.81,0,0,1-.65.15,5,5,0,0,1-.71.05,3,3,0,0,1-2.18-.78,3.11,3.11,0,0,1-.81-2.34v-9.35l1.59-.56v9.69a2.64,2.64,0,0,0,.22,1.21,1.22,1.22,0,0,0,.61.6,2.26,2.26,0,0,0,.88.16,2.86,2.86,0,0,0,.53,0A3.28,3.28,0,0,0,138.7,148.24Z"/><path class="cls-3" d="M150.35,149.8a9.94,9.94,0,0,1-2-.19,7.12,7.12,0,0,1-1.74-.58,6.57,6.57,0,0,1-1.44-1l.61-1.23a6.59,6.59,0,0,0,2.11,1.25,7.5,7.5,0,0,0,2.49.37,4.38,4.38,0,0,0,2.58-.65,2.13,2.13,0,0,0,.91-1.84,1.51,1.51,0,0,0-.46-1.16,3.21,3.21,0,0,0-1.24-.71c-.53-.17-1.13-.34-1.79-.49s-1.29-.31-1.89-.5a7.27,7.27,0,0,1-1.59-.71,3.07,3.07,0,0,1-1.08-1.1,3.21,3.21,0,0,1-.39-1.66,3.55,3.55,0,0,1,.62-2.09,4.1,4.1,0,0,1,1.76-1.42,6.59,6.59,0,0,1,2.67-.5,7.84,7.84,0,0,1,1.83.2,7,7,0,0,1,1.63.6,5.6,5.6,0,0,1,1.34.95l-.63,1.23a6.44,6.44,0,0,0-2-1.23,6.06,6.06,0,0,0-2.2-.39,4.21,4.21,0,0,0-2.54.68,2.26,2.26,0,0,0-.91,1.92,1.79,1.79,0,0,0,.4,1.22,2.83,2.83,0,0,0,1.16.76,13.17,13.17,0,0,0,1.69.51q1,.24,1.95.51a8.55,8.55,0,0,1,1.67.67,3.26,3.26,0,0,1,1.16,1,2.78,2.78,0,0,1,.43,1.61,3.54,3.54,0,0,1-.62,2.07,4.06,4.06,0,0,1-1.78,1.36A6.9,6.9,0,0,1,150.35,149.8Z"/><path class="cls-3" d="M165.94,148.47a4.58,4.58,0,0,1-1.65,1,6.32,6.32,0,0,1-2.06.35,5.29,5.29,0,0,1-2.62-.61,4.08,4.08,0,0,1-1.7-1.74,5.78,5.78,0,0,1-.59-2.72,5.84,5.84,0,0,1,.58-2.68,4.41,4.41,0,0,1,1.63-1.79,4.5,4.5,0,0,1,2.41-.64,4.21,4.21,0,0,1,2.24.57,3.64,3.64,0,0,1,1.44,1.65,6.08,6.08,0,0,1,.49,2.57v.3H158.7v-1h6.52l-.51.73a4.07,4.07,0,0,0-.67-2.64,2.49,2.49,0,0,0-2.08-.92,2.71,2.71,0,0,0-2.23,1,5.28,5.28,0,0,0,0,5.67,3.13,3.13,0,0,0,2.49,1,4.85,4.85,0,0,0,1.65-.28,5.14,5.14,0,0,0,1.51-.87Z"/><path class="cls-3" d="M168.51,149.64V135.28h1.58v14.36Z"/><path class="cls-3" d="M181.19,148.47a4.45,4.45,0,0,1-1.64,1,6.32,6.32,0,0,1-2.06.35,5.33,5.33,0,0,1-2.63-.61,4.06,4.06,0,0,1-1.69-1.74,5.78,5.78,0,0,1-.6-2.72,5.85,5.85,0,0,1,.59-2.68,4.35,4.35,0,0,1,4-2.43,4.25,4.25,0,0,1,2.25.57,3.68,3.68,0,0,1,1.43,1.65,6.07,6.07,0,0,1,.5,2.57v.3H174v-1h6.51l-.5.73a4.07,4.07,0,0,0-.68-2.64,2.48,2.48,0,0,0-2.08-.92,2.72,2.72,0,0,0-2.23,1,5.26,5.26,0,0,0,0,5.67,3.12,3.12,0,0,0,2.49,1,4.85,4.85,0,0,0,1.65-.28,5.27,5.27,0,0,0,1.51-.87Z"/><path class="cls-3" d="M187.89,149.78a4.85,4.85,0,0,1-2.5-.62,4.26,4.26,0,0,1-1.63-1.76,6.43,6.43,0,0,1,0-5.36,4.31,4.31,0,0,1,1.66-1.8,4.81,4.81,0,0,1,2.53-.64,5.49,5.49,0,0,1,1.93.34,4.21,4.21,0,0,1,1.53.94l-.53,1.17a6.29,6.29,0,0,0-1.41-.85,4,4,0,0,0-1.44-.28,2.94,2.94,0,0,0-2.35,1,4.13,4.13,0,0,0-.87,2.81,4.08,4.08,0,0,0,.86,2.77,3,3,0,0,0,2.36,1,3.79,3.79,0,0,0,1.43-.28,6,6,0,0,0,1.42-.85l.53,1.17a4.57,4.57,0,0,1-1.57.93A5.69,5.69,0,0,1,187.89,149.78Z"/><path class="cls-3" d="M192.06,141.08v-1.25h6.3v1.25Zm6.26,7.16v1.34a4,4,0,0,1-.65.15,5.16,5.16,0,0,1-.71.05,3,3,0,0,1-2.18-.78,3.11,3.11,0,0,1-.81-2.34v-9.35l1.58-.56v9.69a2.63,2.63,0,0,0,.23,1.21,1.22,1.22,0,0,0,.61.6,2.23,2.23,0,0,0,.88.16,2.93,2.93,0,0,0,.53,0A3.28,3.28,0,0,0,198.32,148.24Z"/><path class="cls-3" d="M269.65,141.26,260.92,150a.5.5,0,0,1-.71,0l-8.72-8.72a.51.51,0,0,1,0-.71l.83-.82a.5.5,0,0,1,.71,0l7.54,7.52,7.54-7.52a.5.5,0,0,1,.71,0l.83.82A.51.51,0,0,1,269.65,141.26Z"/></svg>