<svg id="Layer_2" data-name="Layer 2" xmlns="http://www.w3.org/2000/svg" viewBox="0 0 363.4 284.92"><defs><style>.cls-1{fill:#f7f8f8;}.cls-2{fill:#d0d6d8;}.cls-3{fill:#fff;}</style></defs><rect class="cls-1" x="-2.17" y="-1.57" width="367.86" height="288.77"/><path class="cls-2" d="M219.56,114.89h-36.2l46-13.62a2.92,2.92,0,0,0,2-3.63l-1.22-4.11a2.92,2.92,0,0,0-3.63-2l-79.42,23.49a11.49,11.49,0,0,0-9.63,11.34v47.33A11.49,11.49,0,0,0,149,185.21h70.58a11.5,11.5,0,0,0,11.5-11.49V126.39A11.5,11.5,0,0,0,219.56,114.89Z"/><circle class="cls-3" cx="204.63" cy="149.99" r="14.57"/><rect class="cls-3" x="152.03" y="135.32" width="23.24" height="6.12" rx="1.15"/><rect class="cls-3" x="152.03" y="158.76" width="23.24" height="6.12" rx="1.15"/><rect class="cls-3" x="149.02" y="146.94" width="29.19" height="6.12" rx="1.29"/><circle class="cls-2" cx="204.49" cy="149.95" r="8.08"/></svg>