<svg id="Layer_2" data-name="Layer 2" xmlns="http://www.w3.org/2000/svg" viewBox="0 0 363.4 284.92"><defs><style>.cls-1{fill:#f7f8f8;}.cls-2{fill:#d0d6d8;}</style></defs><rect class="cls-1" x="-2" y="-1.79" width="367.86" height="288.77"/><path class="cls-2" d="M215.66,84.17h-38.6a19,19,0,0,0-19,19v60.28c0,.14,0,.28,0,.43a8,8,0,0,0,16,.05h0V103.17a3,3,0,0,1,3-3h38.6a3,3,0,0,1,3,3v38.44a3,3,0,0,1-3,3h-41.6v0h-16v0h-13.7a19,19,0,0,0-19,19v9.78a19,19,0,0,0,19,19h5.82v0c.16,0,.31,0,.48,0a8,8,0,0,0,0-16l-.48,0v0h-5.82a3,3,0,0,1-3-3v-9.78a3,3,0,0,1,3-3h5.82v-.07h49.88v.07h15.6a19,19,0,0,0,19-19V103.17A19,19,0,0,0,215.66,84.17Z"/></svg>