<svg id="Layer_2" data-name="Layer 2" xmlns="http://www.w3.org/2000/svg" viewBox="0 0 363.4 284.92"><defs><style>.cls-1{fill:#f7f8f8;}.cls-2{fill:#fff;}.cls-3{fill:#d0d6d8;}.cls-4{fill:#a5b2b8;}.cls-5{font-size:15.43px;fill:#bcc5ca;font-family:FontAwesome5Pro-Regular, "Font Awesome 5 Pro";}</style></defs><rect class="cls-1" x="-2.45" y="-1.79" width="367.86" height="288.77"/><path class="cls-2" d="M99.09,74.37h173.3a7.19,7.19,0,0,1,7.19,7.19V286a0,0,0,0,1,0,0H91.9a0,0,0,0,1,0,0V81.56A7.19,7.19,0,0,1,99.09,74.37Z"/><rect class="cls-1" x="89.39" y="160.2" width="191.65" height="33.25"/><rect class="cls-3" x="152.52" y="101.39" width="92.93" height="7.96" rx="3.87"/><rect class="cls-3" x="152.52" y="172.25" width="92.93" height="7.96" rx="3.87"/><rect class="cls-3" x="165.1" y="216.64" width="85.97" height="7.96" rx="3.72"/><rect class="cls-3" x="165.1" y="251.06" width="85.97" height="7.96" rx="3.72"/><rect class="cls-3" x="152.52" y="137.71" width="92.93" height="7.96" rx="3.87"/><ellipse class="cls-4" cx="120.88" cy="105.89" rx="4.95" ry="4.69"/><ellipse class="cls-4" cx="120.88" cy="141.36" rx="4.95" ry="4.69"/><ellipse class="cls-4" cx="120.88" cy="177.76" rx="4.95" ry="4.69"/><rect class="cls-3" x="148.98" y="205.99" width="1.4" height="66.06"/><text class="cls-5" transform="translate(258.22 181.77)">chevron-down</text></svg>