<svg id="Layer_2" data-name="Layer 2" xmlns="http://www.w3.org/2000/svg" xmlns:xlink="http://www.w3.org/1999/xlink" viewBox="0 0 363.4 284.92"><defs><style>.cls-1{fill:#f7f8f8;}.cls-2,.cls-5{fill:#fff;}.cls-3{fill:#d0d6d8;}.cls-4{fill:#a5a9aa;}.cls-5{stroke-miterlimit:10;stroke-width:0.72px;stroke:url(#linear-gradient);}.cls-6{fill:url(#linear-gradient-2);}</style><linearGradient id="linear-gradient" x1="98.34" y1="137.21" x2="275.61" y2="137.21" gradientUnits="userSpaceOnUse"><stop offset="0" stop-color="#25b9ef"/><stop offset="1" stop-color="#08d18b"/></linearGradient><linearGradient id="linear-gradient-2" x1="98.82" y1="79.15" x2="275.29" y2="79.15" xlink:href="#linear-gradient"/></defs><rect class="cls-1" x="-2.43" y="-2.39" width="367.86" height="288.77"/><rect class="cls-2" x="73.83" y="57.18" width="225.11" height="158.26"/><path class="cls-3" d="M304.31,213.21V60.48a8.12,8.12,0,0,0-8.12-8.12H77.36a8.11,8.11,0,0,0-8.12,8.12V213.21H58.79v7.26A12.18,12.18,0,0,0,71,232.65H302.79A12.18,12.18,0,0,0,315,220.47v-7.26ZM75.27,58.46H297.44V213.21H75.27Z"/><rect class="cls-4" x="164.41" y="213.14" width="44.03" height="4.59"/><rect class="cls-5" x="98.71" y="70.65" width="176.54" height="133.12" rx="4.91"/><path class="cls-6" d="M103.38,70.82H270.74a4.55,4.55,0,0,1,4.55,4.55V87.47a0,0,0,0,1,0,0H98.82a0,0,0,0,1,0,0V75.38A4.55,4.55,0,0,1,103.38,70.82Z"/><rect class="cls-2" x="104.81" y="78.58" width="112.4" height="5.32" rx="2.66"/><rect class="cls-2" x="224.3" y="78.58" width="45.48" height="5.32" rx="2.66"/></svg>