<svg xmlns="http://www.w3.org/2000/svg" viewBox="0 0 363.4 284.92"><defs><style>.cls-1{fill:#f7f8f8;}.cls-2{fill:#fff;}.cls-3,.cls-5,.cls-6,.cls-7{fill:none;stroke:#757777;stroke-miterlimit:10;}.cls-3{stroke-width:0.75px;stroke-dasharray:2.99 2.99;}.cls-4{fill:#25b9ef;opacity:0.23;}.cls-5,.cls-6,.cls-7{stroke-width:0.69px;}.cls-6{stroke-dasharray:2.74 2.74;}.cls-7{stroke-dasharray:2.75 2.75;}.cls-8{fill:#d0d6d8;}</style></defs><g id="Layer_2" data-name="Layer 2"><rect class="cls-1" x="-2.61" y="-1.57" width="367.86" height="288.77"/></g><g id="Layer_3" data-name="Layer 3"><rect class="cls-2" x="108.82" y="90.93" width="147.22" height="105.54" rx="12.01"/><rect class="cls-3" x="108.82" y="90.93" width="147.22" height="105.54" rx="12.01"/><rect class="cls-4" x="109.04" y="90.93" width="147.22" height="105.54" rx="12.01"/><rect class="cls-2" x="127.76" y="108.16" width="109.49" height="71.48"/><polyline class="cls-5" points="237.25 178.26 237.25 179.64 235.88 179.64"/><line class="cls-6" x1="233.14" y1="179.64" x2="130.5" y2="179.64"/><polyline class="cls-5" points="129.14 179.64 127.76 179.64 127.76 178.26"/><line class="cls-7" x1="127.76" y1="175.51" x2="127.76" y2="110.91"/><polyline class="cls-5" points="127.76 109.54 127.76 108.16 129.14 108.16"/><line class="cls-6" x1="131.87" y1="108.16" x2="234.51" y2="108.16"/><polyline class="cls-5" points="235.88 108.16 237.25 108.16 237.25 109.54"/><line class="cls-7" x1="237.25" y1="112.29" x2="237.25" y2="176.89"/><rect class="cls-8" x="133.62" y="114.65" width="56.83" height="10.23" rx="1.65"/><rect class="cls-8" x="133.83" y="140.95" width="96.46" height="5.26" rx="1.89"/><rect class="cls-8" x="133.83" y="154.35" width="96.46" height="5.26" rx="1.89"/><rect class="cls-8" x="133.83" y="167.98" width="96.46" height="5.26" rx="1.89"/></g></svg>