<svg id="Layer_2" data-name="Layer 2" xmlns="http://www.w3.org/2000/svg" viewBox="0 0 363.4 284.92"><defs><style>.cls-1{fill:#f7f8f8;}.cls-2{fill:#d0d6d8;}.cls-3{fill:#fff;}</style></defs><rect class="cls-1" x="-2" y="-1.79" width="367.86" height="288.77"/><polygon class="cls-2" points="241.89 246.74 244.82 246.74 234.69 197.48 243.65 197.48 243.65 185.74 115.53 185.74 115.53 197.48 123.91 197.48 113.77 246.74 116.7 246.74 130.99 197.48 227.6 197.48 241.89 246.74"/><rect class="cls-3" x="78.68" y="52.73" width="210.39" height="116.63" rx="4.3"/><path class="cls-2" d="M83,52.73H284.77a4.3,4.3,0,0,1,4.3,4.3v8.66a0,0,0,0,1,0,0H78.68a0,0,0,0,1,0,0V57A4.3,4.3,0,0,1,83,52.73Z"/><rect class="cls-2" x="90.87" y="76.94" width="59.85" height="5.98" rx="2.99"/><rect class="cls-2" x="90.87" y="94.47" width="59.85" height="5.98" rx="2.99"/><rect class="cls-2" x="90.87" y="112.76" width="59.85" height="5.98" rx="2.99"/><rect class="cls-2" x="90.87" y="130.29" width="59.85" height="5.98" rx="2.99"/><rect class="cls-2" x="90.87" y="148.21" width="59.85" height="5.98" rx="2.99"/><rect class="cls-2" x="181.97" y="76.94" width="49.93" height="5.98" rx="2.73"/><rect class="cls-2" x="181.97" y="94.47" width="49.93" height="5.98" rx="2.73"/><rect class="cls-2" x="181.97" y="112.76" width="49.93" height="5.98" rx="2.73"/><rect class="cls-2" x="181.97" y="130.29" width="49.93" height="5.98" rx="2.73"/><rect class="cls-2" x="181.97" y="148.21" width="49.93" height="5.98" rx="2.73"/><rect class="cls-2" x="255.14" y="76.94" width="20.96" height="5.98" rx="2.99"/><rect class="cls-2" x="255.14" y="94.47" width="20.96" height="5.98" rx="2.99"/><rect class="cls-2" x="255.14" y="112.76" width="20.96" height="5.98" rx="2.99"/><rect class="cls-2" x="255.14" y="130.29" width="20.96" height="5.98" rx="2.99"/><rect class="cls-2" x="255.14" y="148.21" width="20.96" height="5.98" rx="2.99"/></svg>