<svg id="Layer_2" data-name="Layer 2" xmlns="http://www.w3.org/2000/svg" xmlns:xlink="http://www.w3.org/1999/xlink" viewBox="0 0 363.4 284.92"><defs><style>.cls-1{fill:#f7f8f8;}.cls-2{fill:url(#linear-gradient);}.cls-3{fill:#fff;}.cls-4{fill:url(#linear-gradient-2);}.cls-5{fill:#d0d6d8;}</style><linearGradient id="linear-gradient" x1="113.77" y1="216.24" x2="244.82" y2="216.24" gradientUnits="userSpaceOnUse"><stop offset="0" stop-color="#00ce7c"/><stop offset="1" stop-color="#4ac1e0"/></linearGradient><linearGradient id="linear-gradient-2" x1="78.68" y1="59.21" x2="289.06" y2="59.21" xlink:href="#linear-gradient"/></defs><rect class="cls-1" x="-2" y="-1.79" width="367.86" height="288.77"/><polygon class="cls-2" points="241.89 246.74 244.82 246.74 234.69 197.48 243.65 197.48 243.65 185.74 115.53 185.74 115.53 197.48 123.91 197.48 113.77 246.74 116.7 246.74 130.99 197.48 227.6 197.48 241.89 246.74"/><rect class="cls-3" x="78.68" y="52.73" width="210.39" height="116.63" rx="4.3"/><path class="cls-4" d="M83,52.73H284.77a4.3,4.3,0,0,1,4.3,4.3v8.66a0,0,0,0,1,0,0H78.68a0,0,0,0,1,0,0V57A4.3,4.3,0,0,1,83,52.73Z"/><rect class="cls-5" x="90.87" y="76.94" width="59.85" height="5.98" rx="2.99"/><rect class="cls-5" x="90.87" y="94.47" width="59.85" height="5.98" rx="2.99"/><rect class="cls-5" x="90.87" y="112.76" width="59.85" height="5.98" rx="2.99"/><rect class="cls-5" x="90.87" y="130.29" width="59.85" height="5.98" rx="2.99"/><rect class="cls-5" x="90.87" y="148.21" width="59.85" height="5.98" rx="2.99"/><rect class="cls-5" x="181.97" y="76.94" width="49.93" height="5.98" rx="2.73"/><rect class="cls-5" x="181.97" y="94.47" width="49.93" height="5.98" rx="2.73"/><rect class="cls-5" x="181.97" y="112.76" width="49.93" height="5.98" rx="2.73"/><rect class="cls-5" x="181.97" y="130.29" width="49.93" height="5.98" rx="2.73"/><rect class="cls-5" x="181.97" y="148.21" width="49.93" height="5.98" rx="2.73"/><rect class="cls-5" x="255.14" y="76.94" width="20.96" height="5.98" rx="2.99"/><rect class="cls-5" x="255.14" y="94.47" width="20.96" height="5.98" rx="2.99"/><rect class="cls-5" x="255.14" y="112.76" width="20.96" height="5.98" rx="2.99"/><rect class="cls-5" x="255.14" y="130.29" width="20.96" height="5.98" rx="2.99"/><rect class="cls-5" x="255.14" y="148.21" width="20.96" height="5.98" rx="2.99"/></svg>