<svg id="Layer_2" data-name="Layer 2" xmlns="http://www.w3.org/2000/svg" xmlns:xlink="http://www.w3.org/1999/xlink" viewBox="0 0 363.4 284.92"><defs><style>.cls-1{fill:#f7f8f8;}.cls-2{fill:url(#linear-gradient);}</style><linearGradient id="linear-gradient" x1="135.64" y1="144.89" x2="232.42" y2="144.89" gradientUnits="userSpaceOnUse"><stop offset="0" stop-color="#25b9ef"/><stop offset="1" stop-color="#08d18b"/></linearGradient></defs><rect class="cls-1" x="-2" y="-2.23" width="367.86" height="288.77"/><path class="cls-2" d="M135.64,144.15V105.57a9.08,9.08,0,0,1,9.08-9.07H183.3a9,9,0,0,1,6.41,2.66l40,40a9.07,9.07,0,0,1,0,12.84l-38.58,38.58a9.08,9.08,0,0,1-12.83,0l-40-40.05A9.08,9.08,0,0,1,135.64,144.15Zm21.17-35.55a9.07,9.07,0,1,0,9.08,9.07A9.07,9.07,0,0,0,156.81,108.6Z"/></svg>