<svg id="Layer_2" data-name="Layer 2" xmlns="http://www.w3.org/2000/svg" viewBox="0 0 363.4 284.92"><defs><style>.cls-1{fill:#f7f8f8;}.cls-2{fill:#d0d6d8;}</style></defs><rect class="cls-1" x="-2.45" y="-1.79" width="367.86" height="288.77"/><path class="cls-2" d="M145.44,155.5l-4.37,14.1h-6.92l17.57-54.44h5.8l17.27,54.44h-6.88l-4.3-14.1Zm16.34-6-7.18-23.64-7.29,23.64Z"/><path class="cls-2" d="M209.51,167.64a20.94,20.94,0,0,1-.35-2.45,19.07,19.07,0,0,1-2.34,2,17.68,17.68,0,0,1-2.82,1.65,18.88,18.88,0,0,1-3.33,1.12,16.62,16.62,0,0,1-3.74.41,16.9,16.9,0,0,1-5.81-.94,13.15,13.15,0,0,1-4.4-2.54,10.74,10.74,0,0,1-2.82-3.76,11.29,11.29,0,0,1-1-4.73,12.23,12.23,0,0,1,1.33-5.83,11.73,11.73,0,0,1,3.75-4.19,17.7,17.7,0,0,1,5.85-2.46,32.66,32.66,0,0,1,7.65-.83H209v-3.18a7.77,7.77,0,0,0-.67-3.29,7.17,7.17,0,0,0-1.91-2.5,8.86,8.86,0,0,0-3-1.57,13.29,13.29,0,0,0-4-.56,11.94,11.94,0,0,0-3.68.52,8.87,8.87,0,0,0-2.75,1.39,6.11,6.11,0,0,0-1.74,2,5.24,5.24,0,0,0-.62,2.45h-7a9.76,9.76,0,0,1,1.14-4.34,12.4,12.4,0,0,1,3.2-3.85,16.63,16.63,0,0,1,5-2.73,20.44,20.44,0,0,1,6.75-1,23.29,23.29,0,0,1,6.39.84,14.86,14.86,0,0,1,5.12,2.52,12.48,12.48,0,0,1,3.37,4.26A13.54,13.54,0,0,1,216,142v18.81a26.26,26.26,0,0,0,.37,4.28,18.86,18.86,0,0,0,1,3.94v.6h-7.21A7.24,7.24,0,0,1,209.51,167.64Zm-7.8-3.83a14,14,0,0,0,3.22-1.39,11.85,11.85,0,0,0,2.47-2,9.57,9.57,0,0,0,1.64-2.3V150h-6.43a28.14,28.14,0,0,0-6.26.62,10.28,10.28,0,0,0-4.24,1.89,5.93,5.93,0,0,0-1.71,2.13,6.58,6.58,0,0,0-.57,2.8,7.37,7.37,0,0,0,.5,2.77,5.71,5.71,0,0,0,1.51,2.17,7.11,7.11,0,0,0,2.55,1.46,11.2,11.2,0,0,0,3.55.52A13.47,13.47,0,0,0,201.71,163.81Z"/></svg>