<svg id="Layer_2" data-name="Layer 2" xmlns="http://www.w3.org/2000/svg" viewBox="0 0 363.4 284.92"><defs><style>.cls-1{fill:#f7f8f8;}.cls-2{fill:#d0d6d8;}</style></defs><rect class="cls-1" x="-2.45" y="-1.79" width="367.86" height="288.77"/><path class="cls-2" d="M134.94,169.6h-6.51l24-54.52h5.51l24,54.52h-6.43l-21.37-49.93h2.3Zm3.67-14,2.22-5.21h28.64l2.22,5.21Z"/><path class="cls-2" d="M204,170.14a16.65,16.65,0,0,1-9-2.42,15.7,15.7,0,0,1-6-6.89,27.17,27.17,0,0,1,0-21.09,16.77,16.77,0,0,1,6-7.05,16,16,0,0,1,8.92-2.52,15.08,15.08,0,0,1,9,2.6,12.84,12.84,0,0,1,5,7.43l-.92.61v-9.73h6.12V169.6H217v-9.95l.92.46a12.85,12.85,0,0,1-5,7.42A15.08,15.08,0,0,1,204,170.14Zm1.22-5.13q5.67,0,8.73-3.87t3.07-11q0-7.12-3.11-11a10.55,10.55,0,0,0-8.69-3.83,10.73,10.73,0,0,0-8.84,3.95q-3.18,3.94-3.18,11t3.18,10.88A10.87,10.87,0,0,0,205.23,165Z"/></svg>