<svg id="Layer_2" data-name="Layer 2" xmlns="http://www.w3.org/2000/svg" viewBox="0 0 363.4 284.92"><defs><style>.cls-1{fill:#f7f8f8;}.cls-2{fill:#176fb3;}</style></defs><rect class="cls-1" x="-2" y="-1.79" width="367.86" height="288.77"/><path class="cls-2" d="M110.66,160h-5.77l21.24-48.33H131L152.27,160h-5.71l-18.94-44.26h2Zm3.25-12.43,2-4.61h25.39l2,4.61Z"/><path class="cls-2" d="M171.88,160.51a14.69,14.69,0,0,1-8-2.14,14,14,0,0,1-5.3-6.11,24.19,24.19,0,0,1,0-18.7,14.82,14.82,0,0,1,5.32-6.24,14.11,14.11,0,0,1,7.91-2.24,13.44,13.44,0,0,1,7.94,2.3,11.39,11.39,0,0,1,4.42,6.59l-.82.54v-8.62h5.43V160h-5.43v-8.83l.82.41a11.37,11.37,0,0,1-4.42,6.58A13.37,13.37,0,0,1,171.88,160.51ZM173,156a9.29,9.29,0,0,0,7.74-3.43q2.72-3.42,2.71-9.74t-2.75-9.7a9.33,9.33,0,0,0-7.7-3.4,9.51,9.51,0,0,0-7.84,3.5q-2.82,3.5-2.82,9.74t2.82,9.64A9.64,9.64,0,0,0,173,156Z"/><path class="cls-2" d="M260.54,134.22v22.21a5.33,5.33,0,0,1-5.33,5.33H216.12a5.33,5.33,0,0,1-5.33-5.33V117.34a5.33,5.33,0,0,1,5.33-5.33h22.21a.89.89,0,0,1,.89.89v1.78a.89.89,0,0,1-.89.89H216.12a1.77,1.77,0,0,0-1.77,1.77v39.09a1.78,1.78,0,0,0,1.77,1.78h39.09a1.78,1.78,0,0,0,1.78-1.78V134.22a.89.89,0,0,1,.89-.89h1.77A.89.89,0,0,1,260.54,134.22Zm7.11-28,0,15.1a1.34,1.34,0,0,1-1.33,1.34h-1.11a1.33,1.33,0,0,1-1.33-1.34l0-10-.07-.08-35.89,35.89a1.33,1.33,0,0,1-1.88,0l-.63-.63a1.3,1.3,0,0,1,0-1.88l35.89-35.89-.08-.08-10,0a1.34,1.34,0,0,1-1.33-1.33v-1.11a1.34,1.34,0,0,1,1.33-1.34l15.11,0A1.33,1.33,0,0,1,267.65,106.24Z"/></svg>