<svg id="Layer_2" data-name="Layer 2" xmlns="http://www.w3.org/2000/svg" viewBox="0 0 363.4 284.92"><defs><style>.cls-1{fill:#f7f8f8;}.cls-2{fill:#d0d6d8;}</style></defs><rect class="cls-1" x="-2.45" y="-1.79" width="367.86" height="288.77"/><path class="cls-2" d="M171.74,169.6l-5.44-12.79H139.65l-5.51,12.79h-10l24.66-54.52h8l24.73,54.52Zm-28.8-20.44H163L153,125.8Z"/><path class="cls-2" d="M223.81,130.93V169.6h-9.42v-6.2a12.46,12.46,0,0,1-5.06,5,15.35,15.35,0,0,1-7.5,1.8,16.44,16.44,0,0,1-9-2.45,16.15,16.15,0,0,1-6.05-7,24.17,24.17,0,0,1-2.14-10.49,24.52,24.52,0,0,1,2.18-10.6,17,17,0,0,1,6.09-7.2,15.79,15.79,0,0,1,8.88-2.56,15.46,15.46,0,0,1,7.5,1.79,12.48,12.48,0,0,1,5.06,5v-5.82Zm-12,28.49q2.61-3.3,2.61-9.27,0-6.12-2.61-9.42a8.91,8.91,0,0,0-7.42-3.29,8.82,8.82,0,0,0-7.39,3.41q-2.64,3.41-2.65,9.45c0,4,.89,7,2.65,9.19a9.1,9.1,0,0,0,7.46,3.22A8.83,8.83,0,0,0,211.78,159.42Z"/></svg>