<svg id="Layer_2" data-name="Layer 2" xmlns="http://www.w3.org/2000/svg" xmlns:xlink="http://www.w3.org/1999/xlink" viewBox="0 0 363.4 284.92"><defs><style>.cls-1{fill:#f7f8f8;}.cls-2{fill:url(#linear-gradient);}</style><linearGradient id="linear-gradient" x1="124.9" y1="143.04" x2="227.43" y2="143.04" gradientUnits="userSpaceOnUse"><stop offset="0" stop-color="#25b9ef"/><stop offset="1" stop-color="#08d18b"/></linearGradient></defs><rect class="cls-1" x="-2.45" y="-1.79" width="367.86" height="288.77"/><path class="cls-2" d="M172.83,170l-5.2-12.1h-25.5L136.92,170h-12l25-54.52h9.65l25,54.52Zm-26.72-21.21h17.61l-8.8-20.44Zm81.32-17.61V170H216v-5.74a12.15,12.15,0,0,1-5,4.67,15.43,15.43,0,0,1-7.27,1.68,15.91,15.91,0,0,1-15-9.45,24.19,24.19,0,0,1-2.18-10.53A24.91,24.91,0,0,1,188.8,140a16.94,16.94,0,0,1,6.09-7.24,15.8,15.8,0,0,1,8.88-2.57,14.9,14.9,0,0,1,7.27,1.76,12.74,12.74,0,0,1,5,4.75v-5.51Zm-13.7,27.72Q216,156,216,150.47T213.73,142a8.82,8.82,0,0,0-13.25.12q-2.39,3.06-2.38,8.5t2.34,8.31a8.15,8.15,0,0,0,6.7,2.87A7.92,7.92,0,0,0,213.73,158.89Z"/></svg>