<svg id="Layer_2" data-name="Layer 2" xmlns="http://www.w3.org/2000/svg" xmlns:xlink="http://www.w3.org/1999/xlink" viewBox="0 0 363.4 284.92"><defs><style>.cls-1{fill:#f7f8f8;}.cls-2{fill:url(#linear-gradient);}</style><linearGradient id="linear-gradient" x1="128.36" y1="142.59" x2="223.08" y2="142.59" gradientUnits="userSpaceOnUse"><stop offset="0" stop-color="#25b9ef"/><stop offset="1" stop-color="#08d18b"/></linearGradient></defs><rect class="cls-1" x="-2.45" y="-1.79" width="367.86" height="288.77"/><path class="cls-2" d="M134.87,169.59h-6.51l24-54.52h5.51l24,54.52h-6.43L154,119.66h2.3Zm3.67-14,2.23-5.2H169.4l2.22,5.2Zm65.4,14.55a16.64,16.64,0,0,1-9-2.41,15.76,15.76,0,0,1-6-6.89,27.19,27.19,0,0,1,0-21.1,16.75,16.75,0,0,1,6-7,15.9,15.9,0,0,1,8.92-2.53,15.15,15.15,0,0,1,9,2.6,12.91,12.91,0,0,1,5,7.43l-.92.61v-9.72h6.12v38.52H217v-10l.92.46a12.87,12.87,0,0,1-5,7.43A15.08,15.08,0,0,1,203.94,170.12Zm1.22-5.13q5.67,0,8.73-3.87c2-2.57,3.07-6.24,3.07-11s-1-8.4-3.1-10.95a10.55,10.55,0,0,0-8.7-3.83,10.72,10.72,0,0,0-8.84,3.94q-3.18,3.94-3.18,11t3.18,10.87A10.85,10.85,0,0,0,205.16,165Z"/></svg>