<svg id="Layer_2" data-name="Layer 2" xmlns="http://www.w3.org/2000/svg" viewBox="0 0 363.4 284.92"><defs><style>.cls-1{fill:#f7f8f8;}.cls-2{fill:#d0d6d8;}</style></defs><rect class="cls-1" x="-2.45" y="-1.79" width="367.86" height="288.77"/><path class="cls-2" d="M172.86,169.6l-5.21-12.1h-25.5L137,169.6h-12l25-54.52h9.65l25,54.52Zm-26.72-21.21h17.61l-8.81-20.45Z"/><path class="cls-2" d="M227.46,130.78V169.6H216.05v-5.74a12.27,12.27,0,0,1-5,4.67,15.46,15.46,0,0,1-7.27,1.68,16.23,16.23,0,0,1-8.92-2.45,16.44,16.44,0,0,1-6-7,24.05,24.05,0,0,1-2.19-10.53,24.84,24.84,0,0,1,2.19-10.65,17,17,0,0,1,6.08-7.23,15.86,15.86,0,0,1,8.89-2.57,14.93,14.93,0,0,1,7.27,1.76,12.87,12.87,0,0,1,5,4.75v-5.51ZM213.75,158.5q2.3-2.91,2.3-8.43t-2.3-8.46a7.86,7.86,0,0,0-6.58-2.94,8,8,0,0,0-6.67,3.06q-2.37,3.06-2.37,8.5t2.33,8.31a8.17,8.17,0,0,0,6.71,2.87A7.9,7.9,0,0,0,213.75,158.5Z"/></svg>