<svg id="Layer_2" data-name="Layer 2" xmlns="http://www.w3.org/2000/svg" xmlns:xlink="http://www.w3.org/1999/xlink" viewBox="0 0 363.4 284.92"><defs><style>.cls-1{fill:#f7f8f8;}.cls-2{fill:#e3e7e8;}.cls-3{fill:#53626d;}.cls-4{fill:#fff;}.cls-5{fill:url(#linear-gradient);}</style><linearGradient id="linear-gradient" x1="159.51" y1="183.39" x2="204.09" y2="183.39" gradientUnits="userSpaceOnUse"><stop offset="0" stop-color="#08d18b"/><stop offset="1" stop-color="#25b9ef"/></linearGradient></defs><rect class="cls-1" x="-2" y="-1.79" width="367.86" height="288.77"/><rect class="cls-2" x="138.88" y="142.04" width="84.74" height="81.33" rx="8.79"/><rect class="cls-3" x="64" y="49.8" width="236.77" height="71.83" rx="10"/><rect class="cls-4" x="91.93" y="69.75" width="179.57" height="9.31" rx="4.66"/><rect class="cls-4" x="91.93" y="93.03" width="179.57" height="9.31" rx="4.66"/><path class="cls-5" d="M203.14,195.55,193,185.36a6.46,6.46,0,0,0-7.44-1.21l-9.28-9.28v-5.41l-11.14-8.36-5.57,5.57,8.35,11.15h5.41l9.28,9.28a6.48,6.48,0,0,0,1.21,7.43l10.2,10.2a3.23,3.23,0,0,0,4.58,0l4.59-4.59a3.26,3.26,0,0,0,0-4.59Zm-14.75-14.86a9.15,9.15,0,0,1,6.52,2.7l1.69,1.69a12.4,12.4,0,0,0,7.12-14.47,1,1,0,0,0-1.75-.48l-6.48,6.48-5.91-1-1-5.91,6.48-6.47a1,1,0,0,0-.5-1.76,12.54,12.54,0,0,0-11.89,3.3,12.29,12.29,0,0,0-3.58,9l7.14,7.14a9.86,9.86,0,0,1,2.15-.25Zm-9,7.14-4.94-4.94-13.27,13.28a5.57,5.57,0,1,0,7.88,7.88l10.76-10.76a9.33,9.33,0,0,1-.43-5.46Zm-14.26,14.36a2.09,2.09,0,1,1,2.09-2.09A2.1,2.1,0,0,1,165.09,202.19Z"/></svg>