<svg id="Layer_2" data-name="Layer 2" xmlns="http://www.w3.org/2000/svg" xmlns:xlink="http://www.w3.org/1999/xlink" viewBox="0 0 363.4 284.92"><defs><style>.cls-1{fill:#f7f8f8;}.cls-2{fill:url(#linear-gradient);}</style><linearGradient id="linear-gradient" x1="137.69" y1="142.11" x2="251.11" y2="142.11" gradientUnits="userSpaceOnUse"><stop offset="0" stop-color="#25b9ef"/><stop offset="1" stop-color="#08d18b"/></linearGradient></defs><rect class="cls-1" x="-2.45" y="-1.79" width="367.86" height="288.77"/><path class="cls-2" d="M248.94,103.85H238.87V92.19A2.17,2.17,0,0,0,236.7,90H223.41V86.65a3,3,0,0,0-3-3h-8.87V80.29a2.17,2.17,0,1,0-4.33,0v3.32H153.62V80.29a2.17,2.17,0,1,0-4.33,0v3.32h-8.43a3,3,0,0,0-3,3V98a3,3,0,0,0,3,3h8.43v44.25h-8.57a3,3,0,0,0-3,3V159.6a3,3,0,0,0,3,3h1.09v40.44a3,3,0,0,0,3,3h71a3,3,0,0,0,3-3V162.63h1.24a3,3,0,0,0,3-3V148.28a3,3,0,0,0-3-3h-8.58V101h8.87a3,3,0,0,0,3-3V94.35h11.13V106a2.17,2.17,0,0,0,2.16,2.17h12.24a2.17,2.17,0,1,0,0-4.33Zm-68.23,12.39h.07c4,.08,6.46,5.51,7.68,9.3H173.11C174.59,121.23,177.16,116.24,180.71,116.24Zm26.47,29H153.62V101h24.76v11.92a1.36,1.36,0,0,0,0,.29c-4.39,1.72-7,8.11-8.31,12.33h-2.88a1.38,1.38,0,0,0-1.13.67,2.15,2.15,0,0,0-.27,1.52l3.57,12.54a1.54,1.54,0,0,0,1.4,1.38h20.54a1.56,1.56,0,0,0,1.42-1.47l2.71-12.55a2.12,2.12,0,0,0-.32-1.45,1.32,1.32,0,0,0-1.1-.64h-2.59c-1.14-4-3.81-10.94-8.76-12.46a.78.78,0,0,0,0-.16V101h24.47Z"/></svg>