<svg width="46" height="52" viewBox="0 0 46 52" fill="none" xmlns="http://www.w3.org/2000/svg">
<path d="M21 27.08C15.4731 27.598 10.3384 30.1596 6.60053 34.2637C2.86267 38.3677 0.790691 43.7188 0.790009 49.27V51.21H45.37V49.27C45.3689 43.7157 43.2941 38.362 39.5521 34.2574C35.8101 30.1529 30.6705 27.5933 25.14 27.08C23.7636 27.2213 22.3764 27.2213 21 27.08Z" fill="url(#paint0_linear)" stroke="#0E1E2A" stroke-miterlimit="10" stroke-linecap="round" stroke-linejoin="round"/>
<path d="M38 11.82C37.3378 9.85632 36.2907 8.04433 34.92 6.49003C34.69 6.24003 34.48 5.98003 34.24 5.74003C31.4277 2.92416 27.6477 1.28629 23.67 1.16003H22.57C18.5937 1.28362 14.8139 2.91783 12 5.73003C11.76 5.97003 11.55 6.23003 11.32 6.48003C9.94576 8.03179 8.89825 9.84452 8.24001 11.81C7.43957 14.1738 7.21377 16.6942 7.58132 19.1626C7.94887 21.631 8.89919 23.9763 10.3536 26.0043C11.8079 28.0323 13.7245 29.6846 15.9446 30.8245C18.1647 31.9643 20.6244 32.5589 23.12 32.5589C25.6156 32.5589 28.0753 31.9643 30.2954 30.8245C32.5155 29.6846 34.4321 28.0323 35.8864 26.0043C37.3408 23.9763 38.2911 21.631 38.6587 19.1626C39.0262 16.6942 38.8004 14.1738 38 11.81V11.82Z" fill="white" stroke="#0E1E2A" stroke-linecap="round" stroke-linejoin="round"/>
<path d="M14.68 24.52C16.6114 26.4538 19.1511 27.6618 21.87 27.94C22.6713 28.02 23.4786 28.02 24.28 27.94C27.002 27.6624 29.545 26.4545 31.48 24.52" fill="white"/>
<path d="M14.68 24.52C16.6114 26.4538 19.1511 27.6618 21.87 27.94C22.6713 28.02 23.4786 28.02 24.28 27.94C27.002 27.6624 29.545 26.4545 31.48 24.52" stroke="#0E1E2A" stroke-linecap="round" stroke-linejoin="round"/>
<defs>
<linearGradient id="paint0_linear" x1="-2.30582" y1="39.145" x2="50.3233" y2="39.145" gradientUnits="userSpaceOnUse">
<stop stop-color="#08D18B"/>
<stop offset="1" stop-color="#25B9EF"/>
</linearGradient>
</defs>
</svg>
