<svg id="Layer_1" data-name="Layer 1" xmlns="http://www.w3.org/2000/svg" xmlns:xlink="http://www.w3.org/1999/xlink" viewBox="0 0 42.44 46.97"><defs><style>.cls-1{fill:url(#linear-gradient);}.cls-2{fill:#565958;}</style><linearGradient id="linear-gradient" x1="9.44" y1="21.29" x2="33.29" y2="21.29" gradientUnits="userSpaceOnUse"><stop offset="0" stop-color="#42b788"/><stop offset="1" stop-color="#16b9e5"/></linearGradient></defs><circle class="cls-1" cx="21.37" cy="21.29" r="11.93"/><rect class="cls-2" x="18.86" width="4.72" height="3.32" rx="0.89"/><rect class="cls-2" x="18.86" y="39.16" width="4.72" height="3.32" rx="0.89"/><rect class="cls-2" x="167.61" y="145.84" width="4.72" height="3.32" rx="0.89" transform="translate(188.28 -148.64) rotate(90)"/><rect class="cls-2" x="128.49" y="145.84" width="4.72" height="3.32" rx="0.89" transform="translate(149.16 -109.52) rotate(90)"/><rect class="cls-2" x="134.2" y="131.86" width="4.72" height="3.32" rx="0.89" transform="translate(198.28 12.38) rotate(137.15)"/><rect class="cls-2" x="161.86" y="159.52" width="4.72" height="3.32" rx="0.89" transform="translate(265.03 41.52) rotate(137.15)"/><rect class="cls-2" x="162.01" y="131.97" width="4.72" height="3.32" rx="0.89" transform="translate(2.12 -201.78) rotate(41.91)"/><rect class="cls-2" x="134.28" y="159.65" width="4.72" height="3.32" rx="0.89" transform="translate(24.89 -175.54) rotate(45)"/><path class="cls-2" d="M166.76,170.48H161l-2.73-8.4a16.66,16.66,0,1,0-15.46,0l-2.83,8.42h-5.76a1,1,0,0,0-1,1v.66a1,1,0,0,0,1,1h32.58a1,1,0,0,0,1-1v-.66A1,1,0,0,0,166.76,170.48Zm-30.34-23.11a14.18,14.18,0,1,1,21.06,12.4l-3.33-10.23a4.32,4.32,0,0,0,.61-2.19,4.39,4.39,0,0,0-8.77,0,4.28,4.28,0,0,0,.86,2.58l-3.28,9.75A14.15,14.15,0,0,1,136.42,147.37ZM156,160.46a14.18,14.18,0,0,1-11,0l3.13-9.3a4.32,4.32,0,0,0,4.76-.22Zm-14.38,10,2.6-7.73a16.57,16.57,0,0,0,12.53,0l2.51,7.73Z" transform="translate(-129.19 -126.17)"/></svg>