<svg id="Layer_1" data-name="Layer 1" xmlns="http://www.w3.org/2000/svg" xmlns:xlink="http://www.w3.org/1999/xlink" viewBox="0 0 42.44 46.99"><defs><style>.cls-1{fill:url(#linear-gradient);}.cls-2{fill:#565958;}</style><linearGradient id="linear-gradient" x1="9.44" y1="26.71" x2="33.3" y2="26.71" gradientTransform="matrix(1, 0, 0, -1, 0, 48)" gradientUnits="userSpaceOnUse"><stop offset="0" stop-color="#42b788"/><stop offset="1" stop-color="#16b9e5"/></linearGradient></defs><circle class="cls-1" cx="21.37" cy="21.29" r="11.93"/><rect class="cls-2" x="18.86" width="4.72" height="3.32" rx="0.89"/><rect class="cls-2" x="18.86" y="39.16" width="4.72" height="3.32" rx="0.89"/><rect class="cls-2" x="39.12" y="18.97" width="3.32" height="4.72" rx="0.89"/><rect class="cls-2" y="18.97" width="3.32" height="4.72" rx="0.89"/><rect class="cls-2" x="5" y="5.7" width="4.72" height="3.32" rx="0.89" transform="translate(-3.04 6.97) rotate(-42.85)"/><rect class="cls-2" x="32.66" y="33.38" width="4.72" height="3.32" rx="0.89" transform="translate(-14.48 33.17) rotate(-42.85)"/><rect class="cls-2" x="33.52" y="5.1" width="3.32" height="4.72" rx="0.89" transform="translate(6.13 28.66) rotate(-48.09)"/><rect class="cls-2" x="5.79" y="32.78" width="3.32" height="4.72" rx="0.89" transform="translate(-22.67 15.56) rotate(-45)"/><path class="cls-2" d="M37.57,44.31H31.81l-2.73-8.4a16.66,16.66,0,1,0-15.46,0l-2.83,8.42H5a1,1,0,0,0-1,1V46a1,1,0,0,0,1,1H37.61a1,1,0,0,0,1-1v-.66a1,1,0,0,0-1-1ZM7.23,21.2A14.18,14.18,0,1,1,28.29,33.6L25,23.37a4.23,4.23,0,0,0,.61-2.19,4.39,4.39,0,0,0-8.77,0,4.28,4.28,0,0,0,.86,2.58l-3.28,9.75A14.17,14.17,0,0,1,7.23,21.2ZM26.81,34.29a14.18,14.18,0,0,1-11,0L18.94,25a4.32,4.32,0,0,0,4.76-.22Zm-14.38,10L15,36.56a16.57,16.57,0,0,0,12.53,0l2.51,7.73Z"/></svg>