<svg id="Layer_1" data-name="Layer 1" xmlns="http://www.w3.org/2000/svg" viewBox="0 0 77.88 77.14"><defs><style>.cls-1{fill:#fff;}</style></defs><g id="Layer_2" data-name="Layer 2"><path class="cls-1" d="M21.16,77.14H13.54A13.55,13.55,0,0,1,0,63.61v-7a13.56,13.56,0,0,1,13.5-13.47H23.3V13.55A13.57,13.57,0,0,1,36.85,0H64.37A13.57,13.57,0,0,1,77.92,13.55V41A13.57,13.57,0,0,1,64.37,54.5H34.71v9.11A13.57,13.57,0,0,1,21.16,77.14ZM13.54,54.5a2.17,2.17,0,0,0-2.14,2.14v7a2.16,2.16,0,0,0,2.14,2.1h7.62a2.17,2.17,0,0,0,2.14-2.13V54.5ZM34.71,43.14H64.37A2.17,2.17,0,0,0,66.51,41V13.55a2.17,2.17,0,0,0-2.14-2.14H36.85a2.17,2.17,0,0,0-2.14,2.14Z" transform="translate(-0.04)"/></g></svg>