<svg xmlns="http://www.w3.org/2000/svg" xmlns:xlink="http://www.w3.org/1999/xlink" viewBox="0 0 632.96 197.9"><defs><style>.cls-1{fill:url(#linear-gradient);}.cls-2{fill:#565959;}</style><linearGradient id="linear-gradient" x1="524.82" y1="146.26" x2="632.96" y2="146.26" gradientTransform="matrix(1, 0, 0, -1, 0, 200)" gradientUnits="userSpaceOnUse"><stop offset="0" stop-color="#00ce7c"/><stop offset="1" stop-color="#4ac1e0"/></linearGradient></defs><g id="Layer_2" data-name="Layer 2"><path class="cls-1" d="M611.72,0H578.65a21.27,21.27,0,0,0-21.24,21.25V59.6a3,3,0,0,1,0,.34,4.18,4.18,0,0,1-.88.08l-15.37,0a16.34,16.34,0,0,0-16.32,16.32V91.17a16.34,16.34,0,0,0,16.32,16.32H556a16.34,16.34,0,0,0,16.32-16.32v-15a2.25,2.25,0,0,1,.11-.54,3.5,3.5,0,0,1,.9-.09h38.4A21.27,21.27,0,0,0,633,54.31V21.25A21.26,21.26,0,0,0,611.72,0Zm6.35,21.25V54.32a6.36,6.36,0,0,1-6.35,6.35h-38.4c-.35,0-.7,0-1,0q0-.47,0-.93V21.25a6.36,6.36,0,0,1,6.35-6.35h33.07A6.36,6.36,0,0,1,618.07,21.25Zm-60.6,53.64a15,15,0,0,0-.05,1.51V91.15A1.46,1.46,0,0,1,556,92.57H541.15a1.46,1.46,0,0,1-1.42-1.42V76.3a1.45,1.45,0,0,1,1.42-1.42h14.48C556.08,74.9,556.8,74.92,557.47,74.89Z"/></g><g id="Layer_8" data-name="Layer 8"><g id="Layer_1" data-name="Layer 1"><path class="cls-2" d="M156.8,164.91V109.15c0-3.66,1.79-5.5,5.37-5.5h5.1q5.37,0,5.37,5.5v4.06l-.26,3h.26a26.46,26.46,0,0,1,8.7-9.88,22.15,22.15,0,0,1,13.15-4.25q15.31,0,19.5,13.74h.26a25.59,25.59,0,0,1,9.1-9.69A24.54,24.54,0,0,1,237,102.08q21.85,0,21.86,25.39V164.9c0,3.66-1.83,5.5-5.5,5.5h-5.63q-5.5,0-5.5-5.5V130.61q0-6.54-1.9-10t-7.26-3.4a14.19,14.19,0,0,0-12.5,6.87,29,29,0,0,0-4.52,16.3v24.48c0,3.66-1.79,5.5-5.37,5.5H205q-5.5,0-5.5-5.5V130.62c0-4.27-.59-7.57-1.77-9.88s-3.56-3.47-7.13-3.47a14.36,14.36,0,0,0-12.76,6.94,29.11,29.11,0,0,0-4.52,16.23v24.48c0,3.66-1.79,5.5-5.37,5.5h-5.76C158.59,170.41,156.8,168.58,156.8,164.91Z"/></g></g><g id="Layer_6" data-name="Layer 6"><path class="cls-2" d="M348.68,146.59V109.16c0-3.66,1.83-5.5,5.5-5.5h5.63c3.66,0,5.5,1.83,5.5,5.5v34q0,6.67,2.29,10.14t8,3.47a16.35,16.35,0,0,0,13.68-6.54,25.39,25.39,0,0,0,5-16V109.16c0-3.66,1.83-5.5,5.5-5.5h5.63q5.5,0,5.5,5.5v55.76c0,3.66-1.83,5.5-5.5,5.5h-5.1q-5.37,0-5.37-5.5V161l.26-3H395a24.27,24.27,0,0,1-8.9,9.82A25.17,25.17,0,0,1,371.86,172Q348.69,172,348.68,146.59Z"/></g><g id="Layer_5" data-name="Layer 5"><path class="cls-2" d="M278.53,184.28q2.09-4.59,6.94-3A38.29,38.29,0,0,0,299,183.76q8.37,0,13.61-3.93t5.24-12.3v-5l.26-3.4h-.26q-5.76,9.94-18.32,10-14.13,0-22.19-9.69t-8.05-24.21q0-14.4,7.85-23.76t22.25-9.36a28.85,28.85,0,0,1,8,1,19,19,0,0,1,5.76,2.55,25.69,25.69,0,0,1,3.53,3,11.29,11.29,0,0,1,2,2.55l.52,1h.26a8.76,8.76,0,0,1-.13-1.7v-2.49a4.15,4.15,0,0,1,1.37-3.21,5.76,5.76,0,0,1,4-1.24H329q5.37,0,5.37,5.5v57.2q0,15.84-10.27,23.69t-24.28,7.85a49.32,49.32,0,0,1-19.5-3.53q-5-2.1-2.88-7.07Zm24.21-29.18a14.67,14.67,0,0,0,11.06-4.58q4.38-4.58,4.39-14.92,0-19.36-16.23-19.37-7.59,0-11.78,5T286,134.55q0,9.3,4.45,14.92T302.74,155.1Z"/></g><g id="Layer_7" data-name="Layer 7"><path class="cls-2" d="M426,164.91V109.15c0-3.66,1.79-5.5,5.37-5.5h5.1q5.37,0,5.37,5.5v4.06l-.26,3h.26a26.46,26.46,0,0,1,8.7-9.88,22.15,22.15,0,0,1,13.15-4.25q15.31,0,19.5,13.74h.26a25.59,25.59,0,0,1,9.1-9.69,24.54,24.54,0,0,1,13.68-4.06q21.86,0,21.86,25.39V164.9c0,3.66-1.83,5.5-5.5,5.5H517q-5.5,0-5.5-5.5V130.61q0-6.54-1.9-10t-7.26-3.4a14.19,14.19,0,0,0-12.5,6.87,29,29,0,0,0-4.52,16.3v24.48c0,3.66-1.79,5.5-5.37,5.5h-5.76q-5.51,0-5.5-5.5V130.62c0-4.27-.59-7.57-1.77-9.88s-3.56-3.47-7.13-3.47A14.36,14.36,0,0,0,447,124.21a29.11,29.11,0,0,0-4.52,16.23v24.48c0,3.66-1.79,5.5-5.37,5.5h-5.76C427.83,170.41,426,168.58,426,164.91Z"/></g><g id="Layer_4" data-name="Layer 4"><path class="cls-2" d="M79.45,146.59V109.16c0-3.66,1.83-5.5,5.5-5.5h5.63c3.66,0,5.5,1.83,5.5,5.5v34q0,6.67,2.29,10.14t8,3.47a16.35,16.35,0,0,0,13.68-6.54,25.39,25.39,0,0,0,5-16V109.16c0-3.66,1.83-5.5,5.5-5.5h5.63q5.5,0,5.5,5.5v55.76c0,3.66-1.83,5.5-5.5,5.5h-5.1q-5.37,0-5.37-5.5V161l.26-3h-.26a24.27,24.27,0,0,1-8.9,9.82A25.17,25.17,0,0,1,102.63,172Q79.44,172,79.45,146.59Z"/></g><g id="Layer_3" data-name="Layer 3"><path class="cls-2" d="M9.29,184.28q2.09-4.59,6.94-3a38.29,38.29,0,0,0,13.48,2.49q8.37,0,13.61-3.93t5.24-12.3v-5l.26-3.4h-.26q-5.76,9.94-18.32,10-14.13,0-22.19-9.69T0,135.2q0-14.4,7.85-23.76t22.25-9.36a28.85,28.85,0,0,1,8,1,19,19,0,0,1,5.76,2.55,25.69,25.69,0,0,1,3.53,3,11.29,11.29,0,0,1,2,2.55l.52,1.05h.26a8.76,8.76,0,0,1-.13-1.7V108.1a4.15,4.15,0,0,1,1.37-3.21,5.76,5.76,0,0,1,4-1.24h4.45q5.37,0,5.37,5.5v57.2q0,15.84-10.27,23.69t-24.28,7.85a49.32,49.32,0,0,1-19.5-3.53q-5-2.1-2.88-7.07ZM33.51,155.1a14.67,14.67,0,0,0,11.06-4.58Q49,145.95,49,135.6q0-19.36-16.23-19.37-7.59,0-11.78,5t-4.19,13.35q0,9.3,4.45,14.92T33.51,155.1Z"/></g></svg>