<svg id="Layer_3" data-name="Layer 3" xmlns="http://www.w3.org/2000/svg" xmlns:xlink="http://www.w3.org/1999/xlink" viewBox="0 0 235.22 73.53"><defs><style>.cls-1{fill:url(#linear-gradient);}.cls-2{fill:#fff;}</style><linearGradient id="linear-gradient" x1="195.02" y1="19.97" x2="235.19" y2="19.97" gradientUnits="userSpaceOnUse"><stop offset="0" stop-color="#00ce7c"/><stop offset="1" stop-color="#4ac1e0"/></linearGradient></defs><path class="cls-1" d="M227.32,0H215a7.92,7.92,0,0,0-7.9,7.9V22.28h-6A6.07,6.07,0,0,0,195,28.34v5.52a6.07,6.07,0,0,0,6.07,6.07h5.54a6.07,6.07,0,0,0,6.06-6.07V28.3a.74.74,0,0,1,0-.21,1.93,1.93,0,0,1,.34,0H227.3a7.9,7.9,0,0,0,7.89-7.9V7.91A7.89,7.89,0,0,0,227.32,0Zm2.36,7.9V20.17a2.36,2.36,0,0,1-2.36,2.36H212.63V7.87A2.36,2.36,0,0,1,215,5.51h12.29a2.36,2.36,0,0,1,2.4,2.32ZM207.16,27.83a5.23,5.23,0,0,0,0,.56v5.48a.55.55,0,0,1-.53.53h-5.52a.55.55,0,0,1-.53-.53V28.36a.55.55,0,0,1,.53-.53h6Z" transform="translate(0.03)"/><path class="cls-2" d="M58.27,61.28V40.56a1.78,1.78,0,0,1,1.53-2,1.85,1.85,0,0,1,.47,0h1.9a1.78,1.78,0,0,1,2,1.53,1.85,1.85,0,0,1,0,.47v1.51l-.1,1.12h.1a9.84,9.84,0,0,1,3.23-3.67,8.25,8.25,0,0,1,4.89-1.58q5.7,0,7.25,5.11h.09A9.48,9.48,0,0,1,83,39.44a9.18,9.18,0,0,1,5.08-1.5q8.12,0,8.12,9.43V61.28a1.8,1.8,0,0,1-1.57,2,1.55,1.55,0,0,1-.43,0H92.13a1.8,1.8,0,0,1-2-1.54,1.42,1.42,0,0,1,0-.46V48.54a7.86,7.86,0,0,0-.7-3.7,2.82,2.82,0,0,0-2.7-1.26A5.27,5.27,0,0,0,82,46.13a10.83,10.83,0,0,0-1.68,6.06v9.09a1.79,1.79,0,0,1-1.55,2,1.7,1.7,0,0,1-.45,0H76.21a1.81,1.81,0,0,1-2-1.6,2.67,2.67,0,0,1,0-.4V48.54a8.39,8.39,0,0,0-.65-3.67,2.68,2.68,0,0,0-2.65-1.29,5.32,5.32,0,0,0-4.74,2.58,10.79,10.79,0,0,0-1.68,6v9.1a1.79,1.79,0,0,1-1.55,2,1.69,1.69,0,0,1-.45,0H60.35A1.74,1.74,0,0,1,58.27,61.28Z" transform="translate(0.03)"/><path class="cls-2" d="M129.57,54.48V40.57a1.8,1.8,0,0,1,1.54-2,1.42,1.42,0,0,1,.46,0h2.09a1.81,1.81,0,0,1,2.05,1.53,2.26,2.26,0,0,1,0,.52v12.6a6.8,6.8,0,0,0,.85,3.77,3.29,3.29,0,0,0,3,1.29,6.06,6.06,0,0,0,5.08-2.43,9.45,9.45,0,0,0,1.88-5.93V40.53a1.8,1.8,0,0,1,1.54-2,1.42,1.42,0,0,1,.46,0h2.09a1.81,1.81,0,0,1,2,1.53,2.26,2.26,0,0,1,0,.52V61.25a1.82,1.82,0,0,1-1.59,2,2.36,2.36,0,0,1-.46,0h-1.89a1.79,1.79,0,0,1-2-1.55,1.69,1.69,0,0,1,0-.45V59.79l.1-1.12h-.1a9.08,9.08,0,0,1-3.3,3.65,9.36,9.36,0,0,1-5.31,1.55Q129.57,63.92,129.57,54.48Z" transform="translate(0.03)"/><path class="cls-2" d="M103.5,68.48a1.89,1.89,0,0,1,2.39-1.19l.19.07a14.25,14.25,0,0,0,5,.93,8.22,8.22,0,0,0,5.06-1.46,5.38,5.38,0,0,0,1.94-4.57V60.41l.1-1.26h-.1a7.27,7.27,0,0,1-6.8,3.69,10.16,10.16,0,0,1-8.25-3.6,13.55,13.55,0,0,1-3-9A13.21,13.21,0,0,1,103,41.41c1.94-2.32,4.7-3.48,8.26-3.48a10.89,10.89,0,0,1,3,.39,7.09,7.09,0,0,1,2.14,1,8.71,8.71,0,0,1,1.31,1.12,4.16,4.16,0,0,1,.73.94l.19.39h.1a3.35,3.35,0,0,1-.05-.63v-1a1.56,1.56,0,0,1,.51-1.2,2.2,2.2,0,0,1,1.48-.46h1.66a1.79,1.79,0,0,1,2,1.52,1.88,1.88,0,0,1,0,.53V61.81q0,5.89-3.81,8.81a14.51,14.51,0,0,1-9,2.91,18.3,18.3,0,0,1-7.24-1.31A1.77,1.77,0,0,1,103,70.06a1.75,1.75,0,0,1,.2-.47Zm9-10.84a5.49,5.49,0,0,0,4.11-1.7c1.08-1.14,1.63-3,1.63-5.55q0-7.2-6-7.2A5.42,5.42,0,0,0,107.86,45a7.45,7.45,0,0,0-1.56,5A8.67,8.67,0,0,0,108,55.59,5.5,5.5,0,0,0,112.5,57.64Z" transform="translate(0.03)"/><path class="cls-2" d="M158.32,61.28V40.56a1.78,1.78,0,0,1,1.53-2,1.85,1.85,0,0,1,.47,0h1.9a1.78,1.78,0,0,1,2,1.53,1.85,1.85,0,0,1,0,.47v1.51l-.09,1.12h.09a9.79,9.79,0,0,1,3.24-3.67,8.24,8.24,0,0,1,4.88-1.58q5.7,0,7.25,5.11h0A9.48,9.48,0,0,1,183,39.44a9.18,9.18,0,0,1,5.08-1.5q8.11,0,8.12,9.43V61.28a1.8,1.8,0,0,1-1.57,2,1.55,1.55,0,0,1-.43,0h-2.09a1.8,1.8,0,0,1-2-1.54,1.42,1.42,0,0,1,0-.46V48.54a7.86,7.86,0,0,0-.7-3.7,2.82,2.82,0,0,0-2.7-1.26A5.27,5.27,0,0,0,182,46.13a10.83,10.83,0,0,0-1.68,6.06v9.09a1.79,1.79,0,0,1-1.55,2,1.7,1.7,0,0,1-.45,0h-2.14a1.8,1.8,0,0,1-2-1.54,1.42,1.42,0,0,1,0-.46V48.54a8.25,8.25,0,0,0-.65-3.67,2.68,2.68,0,0,0-2.65-1.29,5.32,5.32,0,0,0-4.74,2.58,10.79,10.79,0,0,0-1.68,6v9.1a1.79,1.79,0,0,1-1.55,2,1.69,1.69,0,0,1-.45,0H160.3C159,63.33,158.32,62.65,158.32,61.28Z" transform="translate(0.03)"/><path class="cls-2" d="M29.52,54.48V40.57a1.81,1.81,0,0,1,1.53-2,2.26,2.26,0,0,1,.52,0h2.06a1.82,1.82,0,0,1,2,1.59,2.36,2.36,0,0,1,0,.46v12.6a6.8,6.8,0,0,0,.85,3.77,3.29,3.29,0,0,0,3,1.29,6.11,6.11,0,0,0,5.09-2.43,9.38,9.38,0,0,0,1.87-5.93V40.53a1.8,1.8,0,0,1,1.54-2,1.42,1.42,0,0,1,.46,0h2.19a1.82,1.82,0,0,1,2,1.59,2.36,2.36,0,0,1,0,.46V61.25a1.8,1.8,0,0,1-1.57,2,1.55,1.55,0,0,1-.43,0h-1.9a1.78,1.78,0,0,1-2-1.53,1.85,1.85,0,0,1,0-.47V59.79l.09-1.12h-.09a9,9,0,0,1-3.31,3.65,9.41,9.41,0,0,1-5.3,1.55Q29.53,63.92,29.52,54.48Z" transform="translate(0.03)"/><path class="cls-2" d="M3.45,68.48a1.89,1.89,0,0,1,2.39-1.19l.19.07a14.25,14.25,0,0,0,5,.93,8.22,8.22,0,0,0,5.06-1.46A5.38,5.38,0,0,0,18,62.26V60.41l.1-1.26H18a7.27,7.27,0,0,1-6.81,3.69A10.13,10.13,0,0,1,3,59.24a13.6,13.6,0,0,1-3-9,13.32,13.32,0,0,1,2.91-8.83,10.23,10.23,0,0,1,8.27-3.47,10.89,10.89,0,0,1,3,.39,7.05,7.05,0,0,1,2.14.94,10.05,10.05,0,0,1,1.31,1.12,4.22,4.22,0,0,1,.73,1l.19.39h.1a3.35,3.35,0,0,1-.05-.63v-.93A1.54,1.54,0,0,1,19.09,39a2.15,2.15,0,0,1,1.48-.46h1.66a1.78,1.78,0,0,1,2,1.53,1.85,1.85,0,0,1,0,.47V61.78q0,5.88-3.82,8.8a14.4,14.4,0,0,1-9,2.92,18.3,18.3,0,0,1-7.24-1.31A1.77,1.77,0,0,1,2.9,70a1.75,1.75,0,0,1,.2-.47Zm9-10.84a5.49,5.49,0,0,0,4.11-1.7q1.64-1.71,1.63-5.55,0-7.2-6-7.2A5.42,5.42,0,0,0,7.81,45a7.51,7.51,0,0,0-1.55,5,8.7,8.7,0,0,0,1.65,5.55A5.5,5.5,0,0,0,12.45,57.64Z" transform="translate(0.03)"/></svg>