<svg id="Layer_3" data-name="Layer 3" xmlns="http://www.w3.org/2000/svg" viewBox="0 0 235.21 73.54"><defs><style>.cls-1{fill:#fff;}</style></defs><path class="cls-1" d="M454.69-206.17H442.4a7.91,7.91,0,0,0-7.9,7.9v14.38a1.84,1.84,0,0,1-.33,0h-5.71a6.07,6.07,0,0,0-6.07,6.06v5.52a6.07,6.07,0,0,0,6.07,6.07H434a6.07,6.07,0,0,0,6.06-6.07v-5.56a.71.71,0,0,1,0-.21,1.68,1.68,0,0,1,.34,0h14.27a7.9,7.9,0,0,0,7.89-7.9v-12.28A7.9,7.9,0,0,0,454.69-206.17Zm2.36,7.9V-186a2.36,2.36,0,0,1-2.36,2.36H440c0-.12,0-.23,0-.35v-14.31a2.36,2.36,0,0,1,2.36-2.36h12.29A2.36,2.36,0,0,1,457.05-198.27Zm-22.52,19.93a4,4,0,0,0,0,.56v5.48a.54.54,0,0,1-.53.53h-5.52a.55.55,0,0,1-.53-.53v-5.51a.54.54,0,0,1,.53-.53h6.07Z" transform="translate(-227.37 206.17)"/><path class="cls-1" d="M285.64-144.89v-20.72a1.78,1.78,0,0,1,2-2h1.9a1.78,1.78,0,0,1,2,2v1.51l-.1,1.12h.1a9.88,9.88,0,0,1,3.23-3.67,8.27,8.27,0,0,1,4.89-1.58q5.7,0,7.25,5.11H307a9.52,9.52,0,0,1,3.39-3.61,9.11,9.11,0,0,1,5.08-1.5q8.12,0,8.12,9.43v13.91a1.8,1.8,0,0,1-2,2h-2.09a1.81,1.81,0,0,1-2.05-2v-12.74a7.76,7.76,0,0,0-.7-3.7,2.83,2.83,0,0,0-2.7-1.26,5.28,5.28,0,0,0-4.65,2.55,10.84,10.84,0,0,0-1.68,6.06v9.09a1.79,1.79,0,0,1-2,2h-2.14a1.81,1.81,0,0,1-2-2v-12.74a8.37,8.37,0,0,0-.65-3.67,2.69,2.69,0,0,0-2.65-1.29,5.32,5.32,0,0,0-4.74,2.58,10.8,10.8,0,0,0-1.68,6v9.1a1.79,1.79,0,0,1-2,2h-2.14C286.3-142.84,285.64-143.52,285.64-144.89Z" transform="translate(-227.37 206.17)"/><path class="cls-1" d="M356.94-151.69V-165.6a1.81,1.81,0,0,1,2-2.05h2.09a1.81,1.81,0,0,1,2.05,2.05V-153a6.83,6.83,0,0,0,.85,3.77,3.31,3.31,0,0,0,3,1.29,6.06,6.06,0,0,0,5.08-2.43,9.43,9.43,0,0,0,1.88-5.93v-9.34a1.81,1.81,0,0,1,2-2.05h2.09a1.81,1.81,0,0,1,2.05,2.05v20.72a1.81,1.81,0,0,1-2.05,2h-1.89a1.79,1.79,0,0,1-2-2v-1.46l.1-1.12h-.1a9.09,9.09,0,0,1-3.3,3.65,9.42,9.42,0,0,1-5.31,1.55Q356.94-142.26,356.94-151.69Z" transform="translate(-227.37 206.17)"/><path class="cls-1" d="M330.87-137.69a1.89,1.89,0,0,1,2.58-1.12,14.14,14.14,0,0,0,5,.93,8.25,8.25,0,0,0,5.06-1.46,5.37,5.37,0,0,0,1.94-4.57v-1.85l.1-1.26h-.1a7.27,7.27,0,0,1-6.8,3.69,10.16,10.16,0,0,1-8.25-3.6,13.57,13.57,0,0,1-3-9,13.24,13.24,0,0,1,2.92-8.83c1.94-2.32,4.7-3.48,8.26-3.48a10.78,10.78,0,0,1,3,.39,7,7,0,0,1,2.14,1,8.87,8.87,0,0,1,1.31,1.12,4.07,4.07,0,0,1,.73.94l.19.39h.1a3.48,3.48,0,0,1-.05-.63V-166a1.55,1.55,0,0,1,.51-1.2,2.18,2.18,0,0,1,1.48-.46h1.66a1.78,1.78,0,0,1,2,2.05v21.25q0,5.9-3.81,8.81a14.49,14.49,0,0,1-9,2.91,18.36,18.36,0,0,1-7.24-1.31,1.77,1.77,0,0,1-1.07-2.63Zm9-10.84a5.48,5.48,0,0,0,4.11-1.7c1.08-1.14,1.63-3,1.63-5.55q0-7.2-6-7.2a5.43,5.43,0,0,0-4.38,1.85,7.44,7.44,0,0,0-1.56,5,8.65,8.65,0,0,0,1.66,5.55A5.5,5.5,0,0,0,339.87-148.53Z" transform="translate(-227.37 206.17)"/><path class="cls-1" d="M385.69-144.89v-20.72a1.78,1.78,0,0,1,2-2h1.9a1.78,1.78,0,0,1,2,2v1.51l-.09,1.12h.09a9.82,9.82,0,0,1,3.24-3.67,8.22,8.22,0,0,1,4.88-1.58q5.7,0,7.25,5.11H407a9.52,9.52,0,0,1,3.39-3.61,9.11,9.11,0,0,1,5.08-1.5q8.12,0,8.12,9.43v13.91a1.8,1.8,0,0,1-2,2h-2.09a1.81,1.81,0,0,1-2.05-2v-12.74a7.76,7.76,0,0,0-.7-3.7,2.82,2.82,0,0,0-2.7-1.26,5.28,5.28,0,0,0-4.65,2.55,10.84,10.84,0,0,0-1.68,6.06v9.09a1.79,1.79,0,0,1-2,2h-2.14a1.81,1.81,0,0,1-2.05-2v-12.74a8.23,8.23,0,0,0-.65-3.67,2.69,2.69,0,0,0-2.65-1.29,5.32,5.32,0,0,0-4.74,2.58,10.8,10.8,0,0,0-1.68,6v9.1a1.79,1.79,0,0,1-2,2h-2.14C386.35-142.84,385.69-143.52,385.69-144.89Z" transform="translate(-227.37 206.17)"/><path class="cls-1" d="M256.89-151.69V-165.6a1.81,1.81,0,0,1,2.05-2.05H261a1.81,1.81,0,0,1,2,2.05V-153a6.83,6.83,0,0,0,.85,3.77,3.32,3.32,0,0,0,3,1.29,6.09,6.09,0,0,0,5.09-2.43,9.42,9.42,0,0,0,1.87-5.93v-9.34a1.81,1.81,0,0,1,2-2.05H278a1.81,1.81,0,0,1,2,2.05v20.72a1.8,1.8,0,0,1-2,2h-1.9a1.78,1.78,0,0,1-2-2v-1.46l.09-1.12h-.09a9,9,0,0,1-3.31,3.65,9.41,9.41,0,0,1-5.3,1.55Q256.89-142.26,256.89-151.69Z" transform="translate(-227.37 206.17)"/><path class="cls-1" d="M230.82-137.69a1.89,1.89,0,0,1,2.58-1.12,14.14,14.14,0,0,0,5,.93,8.25,8.25,0,0,0,5.06-1.46,5.37,5.37,0,0,0,1.94-4.57v-1.85l.1-1.26h-.1a7.28,7.28,0,0,1-6.81,3.69,10.13,10.13,0,0,1-8.24-3.6,13.58,13.58,0,0,1-3-9,13.31,13.31,0,0,1,2.91-8.83,10.23,10.23,0,0,1,8.27-3.47,10.78,10.78,0,0,1,3,.39,7,7,0,0,1,2.14.94,10.26,10.26,0,0,1,1.31,1.12,4.09,4.09,0,0,1,.73.95l.19.39h.1a3.48,3.48,0,0,1-.05-.63V-166a1.54,1.54,0,0,1,.51-1.19,2.13,2.13,0,0,1,1.48-.46h1.66a1.78,1.78,0,0,1,2,2v21.26q0,5.88-3.82,8.8a14.39,14.39,0,0,1-9,2.92,18.36,18.36,0,0,1-7.24-1.31,1.77,1.77,0,0,1-1.07-2.63Zm9-10.84a5.48,5.48,0,0,0,4.11-1.7q1.63-1.71,1.63-5.55,0-7.2-6-7.2a5.43,5.43,0,0,0-4.38,1.85,7.49,7.49,0,0,0-1.55,5,8.71,8.71,0,0,0,1.65,5.55A5.5,5.5,0,0,0,239.82-148.53Z" transform="translate(-227.37 206.17)"/></svg>