<svg id="Layer_1" data-name="Layer 1" xmlns="http://www.w3.org/2000/svg" xmlns:xlink="http://www.w3.org/1999/xlink" viewBox="0 0 295.73 51.79"><defs><style>.cls-1{fill:url(#linear-gradient);}.cls-2{fill:#fff;}</style><linearGradient id="linear-gradient" x1="10.29" y1="23.21" x2="36.28" y2="23.21" gradientUnits="userSpaceOnUse"><stop offset="0" stop-color="#42b788"/><stop offset="1" stop-color="#16b9e5"/></linearGradient></defs><circle class="cls-1" cx="23.29" cy="23.21" r="13"/><rect class="cls-2" x="20.56" width="5.14" height="3.61" rx="0.97"/><rect class="cls-2" x="20.56" y="42.68" width="5.14" height="3.61" rx="0.97"/><rect class="cls-2" x="42.13" y="21.48" width="5.14" height="3.61" rx="0.97" transform="translate(67.73 -21.46) rotate(90)"/><rect class="cls-2" x="-0.5" y="21.48" width="5.14" height="3.61" rx="0.97" transform="translate(25.09 21.18) rotate(90)"/><rect class="cls-2" x="5.71" y="6.24" width="5.14" height="3.61" rx="0.97" transform="translate(19.57 8.28) rotate(137.15)"/><rect class="cls-2" x="35.86" y="36.39" width="5.14" height="3.61" rx="0.97" transform="translate(92.32 40.03) rotate(137.15)"/><rect class="cls-2" x="36.02" y="6.37" width="5.14" height="3.61" rx="0.97" transform="matrix(0.74, 0.67, -0.67, 0.74, 15.07, -23.73)"/><rect class="cls-2" x="5.8" y="36.54" width="5.14" height="3.61" rx="0.97" transform="translate(29.3 5.27) rotate(45)"/><path class="cls-2" d="M42.67,48H34.76l-2.86-8.8a18.14,18.14,0,1,0-16.85,0l-3,8.81H4.9a1.2,1.2,0,0,0-1.2,1.2v.91a1.2,1.2,0,0,0,1.2,1.21H42.67a1.21,1.21,0,0,0,1.21-1.21v-.91A1.21,1.21,0,0,0,42.67,48ZM8.13,23.15A15.45,15.45,0,1,1,31.08,36.66L27.46,25.51a4.7,4.7,0,0,0,.66-2.38,4.78,4.78,0,1,0-8.62,2.81L15.93,36.56A15.42,15.42,0,0,1,8.13,23.15Zm12.81,4.08A4.69,4.69,0,0,0,26.13,27l3.39,10.43a15.52,15.52,0,0,1-12-.05ZM14,48l2.71-8.06a18.22,18.22,0,0,0,6.83,1.33,18,18,0,0,0,6.83-1.34L33,48Z" transform="translate(-0.26 -0.04)"/><path class="cls-2" d="M71.87,3.89c0-2,1-3,2.89-3H91.12a17.42,17.42,0,0,1,6.45,1.16,14.47,14.47,0,0,1,5,3.32,15,15,0,0,1,3.28,5.14,18.4,18.4,0,0,1,1.16,6.66,18.66,18.66,0,0,1-1.16,6.7,15.39,15.39,0,0,1-3.28,5.22,14.62,14.62,0,0,1-5,3.38,16.84,16.84,0,0,1-6.45,1.2H80.89V48c0,2-1,3-2.89,3H74.76c-1.93,0-2.89-1-2.89-3ZM89.42,25.82a8.09,8.09,0,0,0,6.21-2.34,8.89,8.89,0,0,0,2.18-6.3A8.65,8.65,0,0,0,95.66,11a7.9,7.9,0,0,0-6.09-2.31H80.89V25.82Z" transform="translate(-0.26 -0.04)"/><path class="cls-2" d="M115.72,8.9A2.56,2.56,0,0,1,112.83,6V3.89c0-2,1-3,2.89-3h3.1a2.61,2.61,0,0,1,3,3V6c0,1.92-1,2.89-3,2.89Z" transform="translate(-0.26 -0.04)"/><path class="cls-2" d="M112.83,18c0-2,1-3,2.89-3h3.1c1.93,0,2.89,1,2.89,3V48c0,2-1,3-2.89,3h-3.1c-1.93,0-2.89-1-2.89-3Z" transform="translate(-0.26 -0.04)"/><path class="cls-2" d="M128.41,33a21,21,0,0,1,1.34-7.62,17.65,17.65,0,0,1,3.74-5.95,16.27,16.27,0,0,1,5.78-3.88,19.38,19.38,0,0,1,7.4-1.38,16.83,16.83,0,0,1,6.8,1.31,14.09,14.09,0,0,1,5,3.56,15.34,15.34,0,0,1,3.07,5.43,21.58,21.58,0,0,1,1,6.83,3.07,3.07,0,0,1-3.1,3H137.57a11.49,11.49,0,0,0,1.17,4.3,9.89,9.89,0,0,0,2.4,3.06,9.74,9.74,0,0,0,3.31,1.87,12.14,12.14,0,0,0,3.91.64,12.28,12.28,0,0,0,4.48-.78,20.82,20.82,0,0,0,3.28-1.55,3.63,3.63,0,0,1,2.29-.42,2.68,2.68,0,0,1,1.65,1.41l.85,1.41q1.34,2.53-1,3.94a29.06,29.06,0,0,1-4.86,2.37,19.84,19.84,0,0,1-7.33,1.23,20.54,20.54,0,0,1-8-1.52,18.35,18.35,0,0,1-6.1-4.08,17.82,17.82,0,0,1-3.84-6A19.69,19.69,0,0,1,128.41,33Zm25.31-4.09A8.6,8.6,0,0,0,151.57,23,6.82,6.82,0,0,0,146.46,21a8,8,0,0,0-5.75,2.19,10.16,10.16,0,0,0-2.92,5.78Z" transform="translate(-0.26 -0.04)"/><path class="cls-2" d="M169.09,18c0-2,1-3,2.89-3h2.75a2.62,2.62,0,0,1,3,3v3.38a9.57,9.57,0,0,1,0,1c0,.28-.06.54-.1.78a3.33,3.33,0,0,0-.07.7h.14a14.71,14.71,0,0,1,3.84-6.17,12.23,12.23,0,0,1,3-2.11,8,8,0,0,1,3.56-.81,2.52,2.52,0,0,1,2.08.74,3.46,3.46,0,0,1,.6,2.22v2.75c0,2-1,3-3,3a8,8,0,0,0-4.3,1.13,9.62,9.62,0,0,0-3,3,13.83,13.83,0,0,0-1.8,4.16,19.11,19.11,0,0,0-.6,4.79V48c0,2-1,3-2.89,3H172c-1.93,0-2.89-1-2.89-3Z" transform="translate(-0.26 -0.04)"/><path class="cls-2" d="M214.49,3.89c0-2,1-3,2.89-3h14.17a30.92,30.92,0,0,1,10.5,1.69,22.32,22.32,0,0,1,8,4.87,21.56,21.56,0,0,1,5.15,7.82,28.73,28.73,0,0,1,1.83,10.58,28.71,28.71,0,0,1-1.83,10.57,22.32,22.32,0,0,1-5.15,7.9,21.9,21.9,0,0,1-8,4.93A30.92,30.92,0,0,1,231.55,51H217.38c-1.93,0-2.89-1-2.89-3Zm16.57,39.34q7.6,0,12.12-4.43t4.51-12.91a21.35,21.35,0,0,0-1.19-7.4,14.11,14.11,0,0,0-8.64-8.67,19.36,19.36,0,0,0-6.8-1.14h-7.55V43.23Z" transform="translate(-0.26 -0.04)"/><path class="cls-2" d="M264.05,46.75A4,4,0,0,1,262.89,45a2.64,2.64,0,0,1,.74-2.36l1.55-2.26A2.68,2.68,0,0,1,267,39.1a4,4,0,0,1,2.29.67l1.58,1.06a15.22,15.22,0,0,0,2.26,1.2A19.92,19.92,0,0,0,276,43a13.3,13.3,0,0,0,3.42.42,8.56,8.56,0,0,0,5.5-1.59,5.33,5.33,0,0,0,.24-8.07A18.85,18.85,0,0,0,280.83,31q-2.61-1.26-5.61-2.54a32,32,0,0,1-5.6-3,15.83,15.83,0,0,1-4.34-4.33,11.36,11.36,0,0,1-1.72-6.45,13.54,13.54,0,0,1,1.3-6A14,14,0,0,1,268.42,4a15.94,15.94,0,0,1,5.32-2.92,21.05,21.05,0,0,1,6.67-1,22,22,0,0,1,4.19.39,29.17,29.17,0,0,1,3.67,1,22.36,22.36,0,0,1,3,1.24,15.89,15.89,0,0,1,2.08,1.23,2.77,2.77,0,0,1,.91,4L293,10.24c-.51,1-1.12,1.55-1.83,1.55a4.82,4.82,0,0,1-2.18-.57,35.11,35.11,0,0,0-3.64-1.83,12.43,12.43,0,0,0-5-.92A9.05,9.05,0,0,0,274.69,10a4.9,4.9,0,0,0-2,4.09A4.85,4.85,0,0,0,274.38,18a17.47,17.47,0,0,0,4.33,2.72q2.61,1.2,5.61,2.43a31,31,0,0,1,5.6,3,15.57,15.57,0,0,1,4.34,4.37A11.63,11.63,0,0,1,296,37a14.84,14.84,0,0,1-1.12,5.75,13.8,13.8,0,0,1-3.25,4.72,15.3,15.3,0,0,1-5.18,3.18,19.78,19.78,0,0,1-7,1.16,23.7,23.7,0,0,1-5.08-.53A29.72,29.72,0,0,1,270,50a25.33,25.33,0,0,1-3.49-1.66A23.47,23.47,0,0,1,264.05,46.75Z" transform="translate(-0.26 -0.04)"/></svg>