<svg id="Layer_2" data-name="Layer 2" xmlns="http://www.w3.org/2000/svg" xmlns:xlink="http://www.w3.org/1999/xlink" viewBox="0 0 254.75 48.98"><defs><style>.cls-1{fill:#555958;}.cls-2{fill:url(#linear-gradient);}.cls-3{fill:#fff;}</style><linearGradient id="linear-gradient" x1="24.49" y1="48.98" x2="24.49" gradientUnits="userSpaceOnUse"><stop offset="0" stop-color="#41b989"/><stop offset="1" stop-color="#0fbae7"/></linearGradient></defs><path class="cls-1" d="M127.8,41.4A2.07,2.07,0,0,1,130.11,39h13.12a13.91,13.91,0,0,1,5.17.93,11.61,11.61,0,0,1,4,2.66,11.92,11.92,0,0,1,2.63,4.13,14.67,14.67,0,0,1,.93,5.34,14.91,14.91,0,0,1-.93,5.37,12.23,12.23,0,0,1-2.63,4.18,11.73,11.73,0,0,1-4,2.71,13.52,13.52,0,0,1-5.17,1H135V76.79a2.07,2.07,0,0,1-2.32,2.37h-2.6a2.07,2.07,0,0,1-2.31-2.37ZM141.87,59a6.49,6.49,0,0,0,5-1.87,7.13,7.13,0,0,0,1.75-5,7,7,0,0,0-1.73-5A6.36,6.36,0,0,0,142,45.25H135V59Z" transform="translate(-52.75 -34.67)"/><path class="cls-1" d="M163,45.42a2.05,2.05,0,0,1-2.32-2.32V41.4A2.07,2.07,0,0,1,163,39h2.48a2.1,2.1,0,0,1,2.38,2.37v1.7a2.08,2.08,0,0,1-2.38,2.32Zm-2.32,7.29A2.08,2.08,0,0,1,163,50.33h2.48a2.08,2.08,0,0,1,2.32,2.38V76.79a2.07,2.07,0,0,1-2.32,2.37H163a2.07,2.07,0,0,1-2.32-2.37Z" transform="translate(-52.75 -34.67)"/><path class="cls-1" d="M173.13,64.75a16.93,16.93,0,0,1,1.07-6.11,14.43,14.43,0,0,1,3-4.77,13.12,13.12,0,0,1,4.64-3.11,15.46,15.46,0,0,1,5.93-1.1,13.7,13.7,0,0,1,5.46,1,11.32,11.32,0,0,1,4,2.86,12.34,12.34,0,0,1,2.46,4.35,17.38,17.38,0,0,1,.85,5.48,2.39,2.39,0,0,1-.71,1.7,2.37,2.37,0,0,1-1.78.73H180.48a9,9,0,0,0,.93,3.45,7.87,7.87,0,0,0,4.58,4,9.66,9.66,0,0,0,3.14.51,9.8,9.8,0,0,0,3.59-.63,16,16,0,0,0,2.63-1.24,2.89,2.89,0,0,1,1.83-.34,2.18,2.18,0,0,1,1.33,1.13l.68,1.13A2.12,2.12,0,0,1,198.4,77a23.8,23.8,0,0,1-3.9,1.89,15.88,15.88,0,0,1-5.88,1,16.39,16.39,0,0,1-6.44-1.21,14.6,14.6,0,0,1-4.89-3.28,14.39,14.39,0,0,1-3.09-4.81A15.83,15.83,0,0,1,173.13,64.75Zm20.29-3.28a6.9,6.9,0,0,0-1.72-4.72,5.46,5.46,0,0,0-4.1-1.67A6.42,6.42,0,0,0,183,56.84a8.15,8.15,0,0,0-2.34,4.63Z" transform="translate(-52.75 -34.67)"/><path class="cls-1" d="M205.75,52.71a2.08,2.08,0,0,1,2.31-2.38h2.21a2.1,2.1,0,0,1,2.37,2.38v2.71c0,.3,0,.57,0,.79a3.86,3.86,0,0,1-.08.63,2.6,2.6,0,0,0-.06.56h.12a11.09,11.09,0,0,1,1.18-2.6,11.32,11.32,0,0,1,1.9-2.35,9.64,9.64,0,0,1,2.43-1.69,6.44,6.44,0,0,1,2.85-.65,2.06,2.06,0,0,1,1.67.59,2.8,2.8,0,0,1,.48,1.78v2.21a2.12,2.12,0,0,1-2.43,2.37,6.39,6.39,0,0,0-3.45.91,7.63,7.63,0,0,0-2.43,2.37,11.07,11.07,0,0,0-1.44,3.34,15.31,15.31,0,0,0-.48,3.84v9.27a2.07,2.07,0,0,1-2.32,2.37h-2.49a2.07,2.07,0,0,1-2.31-2.37Z" transform="translate(-52.75 -34.67)"/><path class="cls-1" d="M242.15,41.4A2.07,2.07,0,0,1,244.47,39h11.36a24.67,24.67,0,0,1,8.42,1.36,17.76,17.76,0,0,1,6.45,3.9,17.26,17.26,0,0,1,4.12,6.27A23,23,0,0,1,276.29,59a23,23,0,0,1-1.47,8.48,17.85,17.85,0,0,1-4.12,6.33,17.61,17.61,0,0,1-6.45,4,24.91,24.91,0,0,1-8.42,1.35H244.47a2.07,2.07,0,0,1-2.32-2.37ZM255.43,73q6.1,0,9.73-3.55T268.77,59a17,17,0,0,0-1-5.93,11.27,11.27,0,0,0-6.92-7,15.79,15.79,0,0,0-5.46-.9h-6V73Z" transform="translate(-52.75 -34.67)"/><path class="cls-1" d="M281.89,75.77a3.25,3.25,0,0,1-.93-1.38,2.15,2.15,0,0,1,.59-1.9l1.24-1.81a2.19,2.19,0,0,1,1.44-1,3.08,3.08,0,0,1,1.84.54l1.27.84a12.08,12.08,0,0,0,1.81,1,17.47,17.47,0,0,0,2.32.79,10.89,10.89,0,0,0,2.74.33,6.85,6.85,0,0,0,4.41-1.27,4,4,0,0,0,1.58-3.3,4.09,4.09,0,0,0-1.38-3.17,15.06,15.06,0,0,0-3.48-2.26q-2.08-1-4.49-2a25.6,25.6,0,0,1-4.5-2.43,12.73,12.73,0,0,1-3.47-3.47A9,9,0,0,1,281.49,50a10.78,10.78,0,0,1,1.05-4.81,11.15,11.15,0,0,1,2.85-3.67,12.9,12.9,0,0,1,4.27-2.35,16.7,16.7,0,0,1,5.34-.82,18.44,18.44,0,0,1,3.37.31,21.63,21.63,0,0,1,2.94.77,19.05,19.05,0,0,1,2.37,1,13.65,13.65,0,0,1,1.67,1,2.23,2.23,0,0,1,.73,3.23l-1,1.86c-.41.83-.9,1.24-1.46,1.24a3.93,3.93,0,0,1-1.76-.45,28,28,0,0,0-2.91-1.47,10,10,0,0,0-4-.73,7.25,7.25,0,0,0-4.47,1.24,4.1,4.1,0,0,0-.25,6.36,14.12,14.12,0,0,0,3.48,2.18q2.09,1,4.49,2a25,25,0,0,1,4.49,2.4,12.47,12.47,0,0,1,3.48,3.5A9.38,9.38,0,0,1,307.5,68a12,12,0,0,1-.91,4.61,11,11,0,0,1-2.6,3.79,12.25,12.25,0,0,1-4.15,2.54,15.86,15.86,0,0,1-5.63.93,19,19,0,0,1-4.07-.42,22.24,22.24,0,0,1-3.5-1,18.78,18.78,0,0,1-2.8-1.33A18,18,0,0,1,281.89,75.77Z" transform="translate(-52.75 -34.67)"/><rect class="cls-2" width="48.98" height="48.98" rx="6"/><polygon class="cls-3" points="37.12 31.82 36.74 31.82 36.74 29.93 35.55 29.93 35.55 31.82 13.52 31.82 13.52 29.93 12.32 29.93 12.32 31.82 11.79 31.82 10.4 33.7 38.51 33.7 37.12 31.82"/><polygon class="cls-3" points="35.46 29.58 34.34 28.08 14.56 28.08 13.44 29.58 35.46 29.58"/><polygon class="cls-3" points="16.12 25.96 32.78 25.96 31.88 24.75 17.02 24.75 16.12 25.96"/><polygon class="cls-3" points="42.38 38.93 40.63 36.57 8.27 36.57 6.52 38.93 42.38 38.93"/><polygon class="cls-3" points="44.52 41.81 43.86 41.81 43.86 39.57 42.67 39.57 42.67 41.81 6.2 41.81 6.2 39.57 5.01 39.57 5.01 41.81 4.39 41.81 2.19 44.78 23.36 44.78 25.55 44.78 46.72 44.78 44.52 41.81"/><polygon class="cls-3" points="29.99 22.2 29.59 22.2 29.59 20.39 28.39 20.39 28.39 22.2 25.55 22.2 23.36 22.2 20.52 22.2 20.52 20.39 19.33 20.39 19.33 22.2 18.91 22.2 18.34 22.97 30.56 22.97 29.99 22.2"/></svg>