<svg id="Layer_1" data-name="Layer 1" xmlns="http://www.w3.org/2000/svg" xmlns:xlink="http://www.w3.org/1999/xlink" viewBox="0 0 159.69 51.25"><defs><style>.cls-1{fill:url(#linear-gradient);}.cls-2{fill:#fff;}</style><linearGradient id="linear-gradient" x1="10.29" y1="23.21" x2="36.28" y2="23.21" gradientUnits="userSpaceOnUse"><stop offset="0" stop-color="#42b788"/><stop offset="1" stop-color="#16b9e5"/></linearGradient></defs><circle class="cls-1" cx="23.29" cy="23.21" r="13"/><rect class="cls-2" x="20.56" width="5.14" height="3.61" rx="0.97"/><rect class="cls-2" x="20.56" y="42.68" width="5.14" height="3.61" rx="0.97"/><rect class="cls-2" x="79.74" y="37.44" width="5.14" height="3.61" rx="0.97" transform="translate(83.69 -59.06) rotate(90)"/><rect class="cls-2" x="37.1" y="37.44" width="5.14" height="3.61" rx="0.97" transform="translate(41.06 -16.42) rotate(90)"/><rect class="cls-2" x="43.32" y="22.21" width="5.14" height="3.61" rx="0.97" transform="translate(57.99 -5.59) rotate(137.15)"/><rect class="cls-2" x="73.46" y="52.35" width="5.14" height="3.61" rx="0.97" transform="translate(130.75 26.16) rotate(137.15)"/><rect class="cls-2" x="73.63" y="22.33" width="5.14" height="3.61" rx="0.97" transform="matrix(0.74, 0.67, -0.67, 0.74, -2.25, -60.73)"/><rect class="cls-2" x="43.4" y="52.5" width="5.14" height="3.61" rx="0.97" transform="translate(14 -32.61) rotate(45)"/><path class="cls-2" d="M80.28,63.93H72.37l-2.86-8.79a18.15,18.15,0,1,0-16.85,0l-3,8.81H42.5a1.21,1.21,0,0,0-1.2,1.21v.91a1.2,1.2,0,0,0,1.2,1.2H80.28a1.2,1.2,0,0,0,1.2-1.2v-.91A1.21,1.21,0,0,0,80.28,63.93ZM45.74,39.11A15.45,15.45,0,1,1,68.69,52.62L65.07,41.47a4.77,4.77,0,1,0-8.9-2.38,4.74,4.74,0,0,0,.93,2.81L53.53,52.52A15.43,15.43,0,0,1,45.74,39.11Zm12.8,4.08a4.65,4.65,0,0,0,5.2-.24l3.39,10.43a15.42,15.42,0,0,1-12-.05Zm-7,20.74,2.71-8.06a18,18,0,0,0,6.82,1.34,18.23,18.23,0,0,0,6.83-1.34l2.63,8.06Z" transform="translate(-37.86 -16)"/><path class="cls-2" d="M101.85,32.87a1.1,1.1,0,0,1,1.24-1.26h7a7.39,7.39,0,0,1,2.75.49A6.25,6.25,0,0,1,115,33.52a6.33,6.33,0,0,1,1.4,2.2,7.8,7.8,0,0,1,.49,2.84,8,8,0,0,1-.49,2.86,6.55,6.55,0,0,1-1.4,2.23,6.3,6.3,0,0,1-2.16,1.44,7.2,7.2,0,0,1-2.75.51H105.7v6.12A1.1,1.1,0,0,1,104.47,53h-1.38a1.1,1.1,0,0,1-1.24-1.26Zm7.5,9.36a3.48,3.48,0,0,0,2.65-1,3.81,3.81,0,0,0,.93-2.69A3.75,3.75,0,0,0,112,35.9a3.4,3.4,0,0,0-2.6-1H105.7v7.31Z" transform="translate(-37.86 -16)"/><path class="cls-2" d="M120.58,35a1.09,1.09,0,0,1-1.24-1.24v-.9a1.1,1.1,0,0,1,1.24-1.26h1.32a1.11,1.11,0,0,1,1.26,1.26v.9A1.1,1.1,0,0,1,121.9,35Z" transform="translate(-37.86 -16)"/><path class="cls-2" d="M119.34,38.89a1.1,1.1,0,0,1,1.24-1.26h1.32a1.1,1.1,0,0,1,1.23,1.26V51.72A1.1,1.1,0,0,1,121.9,53h-1.32a1.1,1.1,0,0,1-1.24-1.26Z" transform="translate(-37.86 -16)"/><path class="cls-2" d="M126,45.3a8.78,8.78,0,0,1,.58-3.25,7.6,7.6,0,0,1,1.59-2.54,7.08,7.08,0,0,1,2.47-1.66,8.34,8.34,0,0,1,3.16-.58,7.26,7.26,0,0,1,2.91.55,6,6,0,0,1,2.13,1.52,6.52,6.52,0,0,1,1.31,2.32,9.21,9.21,0,0,1,.46,2.92,1.27,1.27,0,0,1-.38.9,1.24,1.24,0,0,1-.95.4h-9.36a4.83,4.83,0,0,0,.49,1.83,4.5,4.5,0,0,0,1,1.31,4.27,4.27,0,0,0,1.41.8,5.17,5.17,0,0,0,1.67.27,5.34,5.34,0,0,0,1.92-.33,9.31,9.31,0,0,0,1.4-.66,1.52,1.52,0,0,1,1-.18,1.13,1.13,0,0,1,.71.6l.36.6a1.13,1.13,0,0,1-.42,1.69,13.1,13.1,0,0,1-2.08,1,8.44,8.44,0,0,1-3.13.52,8.63,8.63,0,0,1-3.43-.65,7.81,7.81,0,0,1-2.6-1.74,7.49,7.49,0,0,1-1.64-2.56A8.2,8.2,0,0,1,126,45.3Zm10.81-1.74a3.66,3.66,0,0,0-.92-2.52,2.9,2.9,0,0,0-2.18-.88,3.41,3.41,0,0,0-2.45.93A4.33,4.33,0,0,0,130,43.56Z" transform="translate(-37.86 -16)"/><path class="cls-2" d="M143.36,38.89a1.11,1.11,0,0,1,1.24-1.26h1.17A1.12,1.12,0,0,1,147,38.89v1.45c0,.16,0,.3,0,.42a3,3,0,0,1,0,.33,1.53,1.53,0,0,0,0,.3H147a6,6,0,0,1,.63-1.38,5.83,5.83,0,0,1,1-1.25,5.21,5.21,0,0,1,1.29-.91,3.42,3.42,0,0,1,1.52-.34,1.09,1.09,0,0,1,.89.31,1.49,1.49,0,0,1,.26,1V40a1.13,1.13,0,0,1-1.3,1.26,3.42,3.42,0,0,0-1.83.48,3.94,3.94,0,0,0-1.3,1.27,5.9,5.9,0,0,0-.77,1.77,8.22,8.22,0,0,0-.25,2.05v4.94A1.1,1.1,0,0,1,145.92,53H144.6a1.11,1.11,0,0,1-1.24-1.26Z" transform="translate(-37.86 -16)"/><path class="cls-2" d="M162.75,32.87A1.1,1.1,0,0,1,164,31.61h6a13.24,13.24,0,0,1,4.48.72A9.35,9.35,0,0,1,178,34.41a9.06,9.06,0,0,1,2.2,3.34,13.3,13.3,0,0,1,0,9,9.43,9.43,0,0,1-2.2,3.37,9.27,9.27,0,0,1-3.43,2.11A13.24,13.24,0,0,1,170,53h-6a1.1,1.1,0,0,1-1.24-1.26Zm7.08,16.8A7.06,7.06,0,0,0,175,47.78a7.37,7.37,0,0,0,1.93-5.52,9.07,9.07,0,0,0-.51-3.16,6.08,6.08,0,0,0-3.69-3.7,8.36,8.36,0,0,0-2.9-.48h-3.22V49.67Z" transform="translate(-37.86 -16)"/><path class="cls-2" d="M183.91,51.17a1.72,1.72,0,0,1-.49-.73,1.15,1.15,0,0,1,.31-1l.67-1a1.13,1.13,0,0,1,.76-.55,1.64,1.64,0,0,1,1,.28l.68.46a6.09,6.09,0,0,0,1,.51,9,9,0,0,0,1.24.42,5.67,5.67,0,0,0,1.46.18,3.69,3.69,0,0,0,2.35-.68,2.27,2.27,0,0,0,.1-3.44,7.69,7.69,0,0,0-1.85-1.21c-.74-.36-1.54-.72-2.39-1.08a14.18,14.18,0,0,1-2.4-1.3,6.79,6.79,0,0,1-1.85-1.85,4.84,4.84,0,0,1-.74-2.75,5.76,5.76,0,0,1,.56-2.56,6,6,0,0,1,1.52-2,6.84,6.84,0,0,1,2.27-1.25,9.05,9.05,0,0,1,2.85-.43,9.46,9.46,0,0,1,1.79.16,12.34,12.34,0,0,1,1.57.41,9.39,9.39,0,0,1,1.26.52,8.35,8.35,0,0,1,.89.53,1.19,1.19,0,0,1,.39,1.72l-.54,1q-.33.66-.78.66a2.08,2.08,0,0,1-.94-.24,14.85,14.85,0,0,0-1.55-.78,5.33,5.33,0,0,0-2.15-.39,3.87,3.87,0,0,0-2.38.66,2.08,2.08,0,0,0-.87,1.75,2.06,2.06,0,0,0,.74,1.64A7.73,7.73,0,0,0,190.18,40c.74.34,1.54.68,2.39,1A14,14,0,0,1,195,42.35a6.72,6.72,0,0,1,1.85,1.87,4.91,4.91,0,0,1,.74,2.8,6.33,6.33,0,0,1-.48,2.45,5.77,5.77,0,0,1-1.38,2,6.76,6.76,0,0,1-2.22,1.36,8.41,8.41,0,0,1-3,.49,10,10,0,0,1-2.17-.22,12.88,12.88,0,0,1-1.87-.56,11.53,11.53,0,0,1-1.49-.71A9.44,9.44,0,0,1,183.91,51.17Z" transform="translate(-37.86 -16)"/></svg>