<svg id="Layer_1" data-name="Layer 1" xmlns="http://www.w3.org/2000/svg" xmlns:xlink="http://www.w3.org/1999/xlink" viewBox="0 0 187.42 51.25"><defs><style>.cls-1{fill:url(#linear-gradient);}.cls-2{fill:#565958;}</style><linearGradient id="linear-gradient" x1="10.29" y1="23.21" x2="36.28" y2="23.21" gradientUnits="userSpaceOnUse"><stop offset="0" stop-color="#42b788"/><stop offset="1" stop-color="#16b9e5"/></linearGradient></defs><circle class="cls-1" cx="23.29" cy="23.21" r="13"/><rect class="cls-2" x="20.56" width="5.14" height="3.61" rx="0.97"/><rect class="cls-2" x="20.56" y="42.68" width="5.14" height="3.61" rx="0.97"/><rect class="cls-2" x="79.74" y="37.44" width="5.14" height="3.61" rx="0.97" transform="translate(83.69 -59.06) rotate(90)"/><rect class="cls-2" x="37.1" y="37.44" width="5.14" height="3.61" rx="0.97" transform="translate(41.06 -16.42) rotate(90)"/><rect class="cls-2" x="43.32" y="22.21" width="5.14" height="3.61" rx="0.97" transform="translate(57.99 -5.59) rotate(137.15)"/><rect class="cls-2" x="73.46" y="52.35" width="5.14" height="3.61" rx="0.97" transform="translate(130.75 26.16) rotate(137.15)"/><rect class="cls-2" x="73.63" y="22.33" width="5.14" height="3.61" rx="0.97" transform="matrix(0.74, 0.67, -0.67, 0.74, -2.25, -60.73)"/><rect class="cls-2" x="43.4" y="52.5" width="5.14" height="3.61" rx="0.97" transform="translate(14 -32.61) rotate(45)"/><path class="cls-2" d="M80.28,63.93H72.37l-2.86-8.79a18.15,18.15,0,1,0-16.85,0l-3,8.81H42.5a1.21,1.21,0,0,0-1.2,1.21v.91a1.2,1.2,0,0,0,1.2,1.2H80.28a1.2,1.2,0,0,0,1.2-1.2v-.91A1.21,1.21,0,0,0,80.28,63.93ZM45.74,39.11A15.45,15.45,0,1,1,68.69,52.62L65.07,41.47a4.77,4.77,0,1,0-8.9-2.38,4.74,4.74,0,0,0,.93,2.81L53.53,52.52A15.43,15.43,0,0,1,45.74,39.11Zm12.8,4.08a4.65,4.65,0,0,0,5.2-.24l3.39,10.43a15.42,15.42,0,0,1-12-.05Zm-7,20.74,2.71-8.06a18,18,0,0,0,6.82,1.34,18.23,18.23,0,0,0,6.83-1.34l2.63,8.06Z" transform="translate(-37.86 -16)"/><path class="cls-2" d="M107.92,31.08a1.35,1.35,0,0,1,1.51-1.55H118a9,9,0,0,1,3.38.61A7.53,7.53,0,0,1,124,31.87a7.85,7.85,0,0,1,1.72,2.7,9.47,9.47,0,0,1,.61,3.49,9.6,9.6,0,0,1-.61,3.5A8,8,0,0,1,124,44.29a7.65,7.65,0,0,1-2.64,1.78,8.81,8.81,0,0,1-3.38.62h-5.35v7.5a1.35,1.35,0,0,1-1.51,1.55h-1.7a1.35,1.35,0,0,1-1.51-1.55Zm9.19,11.48a4.27,4.27,0,0,0,3.25-1.22A4.66,4.66,0,0,0,121.5,38a4.59,4.59,0,0,0-1.12-3.25,4.19,4.19,0,0,0-3.2-1.2h-4.54v9Z" transform="translate(-37.86 -16)"/><path class="cls-2" d="M130.88,33.7a1.34,1.34,0,0,1-1.51-1.51V31.08a1.35,1.35,0,0,1,1.51-1.55h1.62a1.36,1.36,0,0,1,1.55,1.55v1.11a1.35,1.35,0,0,1-1.55,1.51Z" transform="translate(-37.86 -16)"/><path class="cls-2" d="M129.37,38.46a1.35,1.35,0,0,1,1.51-1.55h1.62A1.36,1.36,0,0,1,134,38.46V54.19a1.36,1.36,0,0,1-1.52,1.55h-1.62a1.35,1.35,0,0,1-1.51-1.55Z" transform="translate(-37.86 -16)"/><path class="cls-2" d="M137.53,46.33a10.85,10.85,0,0,1,.7-4,9.22,9.22,0,0,1,2-3.12,8.6,8.6,0,0,1,3-2,10.23,10.23,0,0,1,3.88-.72,8.93,8.93,0,0,1,3.56.68A7.4,7.4,0,0,1,153.27,39a8,8,0,0,1,1.61,2.84,11.24,11.24,0,0,1,.55,3.58A1.6,1.6,0,0,1,153.81,47H142.32a6.1,6.1,0,0,0,.61,2.25,5.34,5.34,0,0,0,1.26,1.61,5.16,5.16,0,0,0,1.73,1,6.65,6.65,0,0,0,4.4-.07A11.24,11.24,0,0,0,152,51a1.85,1.85,0,0,1,1.2-.22,1.38,1.38,0,0,1,.86.73l.45.74A1.39,1.39,0,0,1,154,54.3a16,16,0,0,1-2.55,1.24,10.36,10.36,0,0,1-3.84.64,10.74,10.74,0,0,1-4.21-.79,9.57,9.57,0,0,1-3.19-2.14,9.18,9.18,0,0,1-2-3.14A10.23,10.23,0,0,1,137.53,46.33Zm13.25-2.15a4.47,4.47,0,0,0-1.13-3.08A3.57,3.57,0,0,0,147,40a4.16,4.16,0,0,0-3,1.15,5.3,5.3,0,0,0-1.53,3Z" transform="translate(-37.86 -16)"/><path class="cls-2" d="M158.83,38.46a1.35,1.35,0,0,1,1.51-1.55h1.44a1.37,1.37,0,0,1,1.55,1.55v1.77a4.1,4.1,0,0,1,0,.52c0,.15,0,.28-.05.41a1.5,1.5,0,0,0,0,.37h.08a7.52,7.52,0,0,1,2-3.23,6.28,6.28,0,0,1,1.58-1.11,4.27,4.27,0,0,1,1.87-.43,1.32,1.32,0,0,1,1.09.39,1.82,1.82,0,0,1,.31,1.16v1.44a1.38,1.38,0,0,1-1.58,1.55,4.25,4.25,0,0,0-2.26.59,5,5,0,0,0-1.58,1.56,7.22,7.22,0,0,0-1,2.17,10,10,0,0,0-.31,2.51v6.06A1.35,1.35,0,0,1,162,55.74h-1.63a1.35,1.35,0,0,1-1.51-1.55Z" transform="translate(-37.86 -16)"/><path class="cls-2" d="M182.61,31.08a1.35,1.35,0,0,1,1.51-1.55h7.42a16.23,16.23,0,0,1,5.5.88A11.68,11.68,0,0,1,201.25,33a11.41,11.41,0,0,1,2.7,4.1,15,15,0,0,1,1,5.54,15,15,0,0,1-1,5.53,11.75,11.75,0,0,1-2.7,4.14A11.47,11.47,0,0,1,197,54.85a16.23,16.23,0,0,1-5.5.89h-7.42a1.35,1.35,0,0,1-1.51-1.55Zm8.67,20.6a8.65,8.65,0,0,0,6.35-2.32c1.58-1.54,2.36-3.8,2.36-6.76a11.09,11.09,0,0,0-.62-3.88,7.33,7.33,0,0,0-4.53-4.54,10.3,10.3,0,0,0-3.56-.59h-3.95V51.68Z" transform="translate(-37.86 -16)"/><path class="cls-2" d="M208.56,53.53a2.19,2.19,0,0,1-.61-.91,1.42,1.42,0,0,1,.39-1.24l.81-1.18a1.42,1.42,0,0,1,.94-.68,2,2,0,0,1,1.2.35l.83.55a7.18,7.18,0,0,0,1.18.63,10.8,10.8,0,0,0,1.52.52,6.81,6.81,0,0,0,1.79.22,4.51,4.51,0,0,0,2.88-.83,2.63,2.63,0,0,0,1-2.16,2.66,2.66,0,0,0-.9-2.07,10.24,10.24,0,0,0-2.27-1.48q-1.36-.66-2.94-1.32a17.9,17.9,0,0,1-2.93-1.59,8.31,8.31,0,0,1-2.27-2.27,5.9,5.9,0,0,1-.91-3.38,7.16,7.16,0,0,1,.68-3.14,7.42,7.42,0,0,1,1.87-2.4,8.56,8.56,0,0,1,2.79-1.53,10.87,10.87,0,0,1,3.49-.54,11.14,11.14,0,0,1,2.19.21,13.39,13.39,0,0,1,1.92.5,10.82,10.82,0,0,1,1.55.64,8.44,8.44,0,0,1,1.09.65,1.44,1.44,0,0,1,.48,2.1l-.66,1.22q-.4.81-1,.81a2.68,2.68,0,0,1-1.15-.29,17.58,17.58,0,0,0-1.9-1,6.49,6.49,0,0,0-2.64-.48,4.75,4.75,0,0,0-2.92.81,2.67,2.67,0,0,0-.16,4.15,9,9,0,0,0,2.27,1.42c.91.42,1.89.85,2.93,1.28a15.9,15.9,0,0,1,2.94,1.57A8.12,8.12,0,0,1,224.38,45a6.1,6.1,0,0,1,.9,3.43,7.66,7.66,0,0,1-.59,3A7.16,7.16,0,0,1,223,53.91a8,8,0,0,1-2.72,1.66,10.2,10.2,0,0,1-3.67.61,12.62,12.62,0,0,1-2.66-.27,15.91,15.91,0,0,1-2.29-.69,14.3,14.3,0,0,1-1.83-.86A13.49,13.49,0,0,1,208.56,53.53Z" transform="translate(-37.86 -16)"/></svg>